<svg viewBox="0 0 470 336" fill="none" xmlns="http://www.w3.org/2000/svg">
<g clip-path="url(#clip0)">
<rect width="470" height="336" rx="32" fill="#FD7E50"/>
<rect width="470" height="336" rx="32" fill="url(#paint0_linear)" fill-opacity="0.15"/>
<circle cx="235" cy="187" r="138" fill="white"/>
<path d="M0 260H470V320C470 328.837 462.837 336 454 336H16C7.16344 336 0 328.837 0 320V260Z" fill="#F56139"/>
<path d="M154.813 158.866C162.129 169.675 200.34 221.42 220.936 220.646C245.907 219.7 276.394 209.732 289.082 201.13C296.202 196.31 271.573 161.795 264.638 165.328C253.709 170.897 228.279 178.934 223.892 179.893C219.491 180.852 187.638 157.067 168.474 146.626C151.227 137.21 149.664 151.249 154.813 158.866Z" fill="#EB9481"/>
<path d="M287.861 201.51C292.577 199.54 317.455 187.34 322.565 183.006C327.675 178.672 341.467 165.118 338.538 160.876C335.608 156.621 331.261 160.272 331.261 160.272C331.261 160.272 336.173 153.626 332.85 149.621C329.514 145.615 322.92 151.499 322.92 151.499C322.92 151.499 327.478 144.315 323.865 140.546C320.253 136.789 314.618 143.816 314.618 143.816C314.618 143.816 319.084 137.433 314.815 135.594C309.666 133.375 302.757 146.062 296.754 150.435C295.388 151.433 267.712 168.559 267.712 168.559L287.861 201.51Z" fill="#EB9481"/>
<path d="M315.117 143.225C310.008 152.549 306.159 155.741 297.017 160.823C296.833 160.929 296.951 161.204 297.135 161.126C306.553 156.962 311.952 153.653 315.577 143.448C315.761 142.949 315.367 142.778 315.117 143.225Z" fill="#263238"/>
<path d="M323.315 150.751C317.168 159.97 313.03 163.477 303.835 169.492C303.704 169.571 303.835 169.807 303.98 169.728C313.49 164.58 318.81 161.139 323.735 151.131C323.959 150.672 323.604 150.317 323.315 150.751Z" fill="#263238"/>
<path d="M330.788 160.548C324.194 169.045 319.819 173.077 310.139 177.779C309.915 177.884 310.047 178.239 310.296 178.147C320.634 174.312 326.124 169.321 331.024 160.771C331.365 160.193 331.208 160.023 330.788 160.548Z" fill="#263238"/>
<path d="M257.649 171.841C257.649 171.841 262.404 159.404 265.701 154.4C268.998 149.397 288.136 135.265 291.42 139.218C295.663 144.327 286.219 154.663 280.938 159.128C280.938 159.128 290.764 170.948 285.601 179.826C280.426 188.705 257.649 171.841 257.649 171.841Z" fill="#EB9481"/>
<path d="M292.117 141.005C292.63 148.464 285.313 153.862 280.506 158.577C280.138 158.932 280.296 159.352 280.624 159.575C284.42 164.802 288.243 173.286 285.996 179.722C285.931 179.906 286.193 180.024 286.285 179.853C289.635 173.273 286.548 164.645 282.03 159.181C287.034 154.427 294.127 148.688 292.183 141.005C292.183 140.952 292.117 140.952 292.117 141.005Z" fill="#263238"/>
<path d="M256.14 167.245L278.154 211.334C278.154 211.334 229.908 230.009 211.125 219.503C192.341 209.009 163.312 172.958 157.27 164.737C144.043 146.744 154.433 137.301 169.171 146.481C183.922 155.661 220.411 178.067 222.75 178.697C225.101 179.354 256.14 167.245 256.14 167.245Z" fill="#263238"/>
<path d="M206.989 216.905C188.35 204.048 162.893 172.396 157.285 164.753C145.279 148.415 152.713 139.143 165.231 144.449L206.989 216.905Z" fill="#37474F"/>
<path d="M266.281 212.529C263.483 207.682 260.948 202.679 258.413 197.675C255.891 192.671 253.343 187.667 250.939 182.585C249.586 179.722 248.207 176.859 246.946 173.943C246.906 173.864 247.038 173.785 247.077 173.864C249.875 178.71 252.436 183.701 254.998 188.679C257.559 193.669 260.068 198.699 262.537 203.742C263.93 206.592 265.27 209.469 266.531 212.384C266.583 212.529 266.36 212.673 266.281 212.529Z" fill="#37474F"/>
<path d="M93.7455 259.454H200.759C201.206 255.37 184.813 168.414 165.556 140.466C163.376 137.288 144.658 134.99 137.788 142.87C101.403 184.66 92.8654 258.456 93.7455 259.454Z" fill="#263238"/>
<path d="M123.171 156.765C95.9282 191.779 76.987 232.15 80.3891 240.661C86.7203 256.513 108.591 253.321 111.178 249.119C121.66 232.137 130.264 201.524 139.393 167.456C147.563 137.013 132.142 145.234 123.171 156.765Z" fill="#263238"/>
<path d="M136.595 186.354C136.608 186.315 136.555 186.276 136.529 186.315C135.636 188.009 134.743 189.69 133.902 191.411C133.455 192.317 133.048 193.249 132.641 194.169C134.047 188.784 135.36 183.36 136.503 177.91C136.529 177.818 136.372 177.778 136.358 177.87C133.193 190.294 129.594 202.613 125.509 214.775C123.473 220.829 121.305 226.844 119.02 232.807C117.929 235.644 116.852 238.494 115.631 241.278C114.606 243.589 113.437 245.901 111.782 247.845C109.799 250.169 107.185 251.719 104.151 252.336C100.854 253.006 97.4778 252.73 94.1677 252.244C94.0363 252.231 93.9838 252.415 94.1152 252.441C99.4612 253.636 105.674 254.306 110.311 250.786C114.619 247.516 116.55 242.237 118.442 237.417C123.328 225.058 127.663 212.45 131.17 199.645C131.551 198.253 131.919 196.861 132.286 195.469C132.943 194.169 133.626 192.882 134.244 191.568C135.071 189.874 135.833 188.114 136.595 186.354Z" fill="#37474F"/>
<path d="M105.122 246.99C109.601 236.851 102.994 219.725 87.8882 178.487C85.7996 172.774 40.9819 181.022 42.8997 187.234C45.3166 195.048 59.4239 225.071 62.4056 229.313C76.9858 250.05 102.087 253.872 105.122 246.99Z" fill="#EB9481"/>
<g filter="url(#filter0_d)">
<rect x="2.52441" y="107.054" width="35.2386" height="58.731" rx="1.56616" transform="rotate(-15 2.52441 107.054)" fill="#F0ECE8"/>
<mask id="mask0" mask-type="alpha" maskUnits="userSpaceOnUse" x="5" y="100" width="45" height="62">
<rect x="4.92188" y="108.438" width="31.3232" height="54.8156" rx="1.56616" transform="rotate(-15 4.92188 108.438)" fill="white"/>
</mask>
<g mask="url(#mask0)">
<rect x="4.92188" y="108.438" width="31.3232" height="54.8156" rx="1.56616" transform="rotate(-15 4.92188 108.438)" fill="url(#paint1_radial)"/>
<path d="M22.3063 127.742C22.1957 127.329 22.4406 126.905 22.8533 126.795L24.8616 126.256C25.2743 126.146 25.6985 126.391 25.8091 126.803L26.6601 129.979C26.7707 130.392 26.5257 130.816 26.113 130.927L24.1048 131.465C23.6921 131.576 23.2679 131.331 23.1573 130.918L22.3063 127.742Z" fill="white"/>
<path d="M30.3119 126.047C30.7246 125.937 31.1488 126.182 31.2594 126.594L31.7975 128.603C31.9081 129.015 31.6632 129.44 31.2505 129.55L28.0746 130.401C27.6619 130.512 27.2377 130.267 27.1271 129.854L26.589 127.846C26.4784 127.433 26.7233 127.009 27.136 126.898L30.3119 126.047Z" fill="white"/>
<path d="M26.2382 131.394C26.6509 131.283 27.0751 131.528 27.1857 131.941L27.7238 133.949C27.8344 134.362 27.5895 134.786 27.1768 134.897L24.0009 135.748C23.5882 135.858 23.164 135.613 23.0534 135.201L22.5153 133.192C22.4047 132.78 22.6496 132.355 23.0623 132.245L26.2382 131.394Z" fill="white"/>
<path d="M32.0065 134.053C32.1171 134.466 31.8722 134.89 31.4595 135.001L29.4512 135.539C29.0385 135.649 28.6143 135.404 28.5037 134.992L27.6527 131.816C27.5421 131.403 27.7871 130.979 28.1998 130.868L30.208 130.33C30.6207 130.22 31.045 130.465 31.1555 130.877L32.0065 134.053Z" fill="white"/>
<path d="M33.8699 126.996C34.0082 127.512 33.702 128.042 33.1861 128.181C32.6703 128.319 32.14 128.013 32.0018 127.497C31.8635 126.981 32.1697 126.451 32.6856 126.312C33.2015 126.174 33.7317 126.48 33.8699 126.996Z" fill="white"/>
<path d="M24.4395 124.868C24.5777 125.384 24.2716 125.914 23.7557 126.052C23.2398 126.19 22.7095 125.884 22.5713 125.368C22.4331 124.853 22.7392 124.322 23.2551 124.184C23.771 124.046 24.3012 124.352 24.4395 124.868Z" fill="white"/>
<path d="M31.7882 136.414C31.9264 136.93 31.6203 137.46 31.1044 137.599C30.5885 137.737 30.0583 137.431 29.92 136.915C29.7818 136.399 30.0879 135.869 30.6038 135.73C31.1197 135.592 31.65 135.898 31.7882 136.414Z" fill="white"/>
<path d="M22.3235 134.345C22.4618 134.861 22.1556 135.391 21.6397 135.529C21.1239 135.668 20.5936 135.361 20.4554 134.846C20.3171 134.33 20.6233 133.799 21.1392 133.661C21.6551 133.523 22.1853 133.829 22.3235 134.345Z" fill="white"/>
</g>
</g>
<g filter="url(#filter1_d)">
<rect x="25.3086" y="97.9805" width="35.2386" height="58.731" rx="1.56616" fill="#F0ECE8"/>
<mask id="mask1" mask-type="alpha" maskUnits="userSpaceOnUse" x="27" y="99" width="32" height="56">
<rect x="27.2656" y="99.9385" width="31.3232" height="54.8156" rx="1.56616" fill="white"/>
</mask>
<g mask="url(#mask1)">
<rect x="27.2656" y="99.9385" width="31.3232" height="54.8156" rx="1.56616" fill="url(#paint2_radial)"/>
<path d="M39.0629 123.084C39.0629 122.657 39.4093 122.311 39.8365 122.311H41.9156C42.3429 122.311 42.6893 122.657 42.6893 123.084V126.372C42.6893 126.799 42.3429 127.146 41.9156 127.146H39.8365C39.4093 127.146 39.0629 126.799 39.0629 126.372V123.084Z" fill="white"/>
<path d="M47.2343 123.519C47.6616 123.519 48.008 123.866 48.008 124.293V126.372C48.008 126.799 47.6616 127.146 47.2343 127.146H43.9464C43.5192 127.146 43.1728 126.799 43.1728 126.372V124.293C43.1728 123.866 43.5192 123.519 43.9464 123.519L47.2343 123.519Z" fill="white"/>
<path d="M41.9156 127.629C42.3429 127.629 42.6893 127.976 42.6893 128.403V130.482C42.6893 130.909 42.3429 131.256 41.9156 131.256H38.6277C38.2005 131.256 37.8541 130.909 37.8541 130.482V128.403C37.8541 127.976 38.2005 127.629 38.6277 127.629H41.9156Z" fill="white"/>
<path d="M46.7992 131.691C46.7992 132.118 46.4528 132.465 46.0255 132.465H43.9464C43.5192 132.465 43.1728 132.118 43.1728 131.691L43.1728 128.403C43.1728 127.976 43.5192 127.629 43.9464 127.629H46.0255C46.4528 127.629 46.7992 127.976 46.7992 128.403L46.7992 131.691Z" fill="white"/>
<path d="M50.4255 125.357C50.4255 125.891 49.9926 126.324 49.4585 126.324C48.9244 126.324 48.4915 125.891 48.4915 125.357C48.4915 124.823 48.9244 124.39 49.4585 124.39C49.9926 124.39 50.4255 124.823 50.4255 125.357Z" fill="white"/>
<path d="M41.8673 120.86C41.8673 121.394 41.4343 121.827 40.9003 121.827C40.3662 121.827 39.9332 121.394 39.9332 120.86C39.9332 120.326 40.3662 119.893 40.9003 119.893C41.4343 119.893 41.8673 120.326 41.8673 120.86Z" fill="white"/>
<path d="M45.9772 133.915C45.9772 134.449 45.5442 134.882 45.0102 134.882C44.4761 134.882 44.0431 134.449 44.0431 133.915C44.0431 133.381 44.4761 132.948 45.0102 132.948C45.5442 132.948 45.9772 133.381 45.9772 133.915Z" fill="white"/>
<path d="M37.3706 129.467C37.3706 130.001 36.9376 130.434 36.4036 130.434C35.8695 130.434 35.4365 130.001 35.4365 129.467C35.4365 128.933 35.8695 128.5 36.4036 128.5C36.9376 128.5 37.3706 128.933 37.3706 129.467Z" fill="white"/>
</g>
</g>
<g filter="url(#filter2_d)">
<rect x="49.3447" y="97.9341" width="35.2386" height="58.731" rx="1.56616" transform="rotate(15 49.3447 97.9341)" fill="#F0ECE8"/>
<mask id="mask2" mask-type="alpha" maskUnits="userSpaceOnUse" x="36" y="100" width="45" height="62">
<rect x="50.7295" y="100.332" width="31.3232" height="54.8156" rx="1.56616" transform="rotate(15 50.7295 100.332)" fill="white"/>
</mask>
<g mask="url(#mask2)">
<rect x="50.7295" y="100.332" width="31.3232" height="54.8156" rx="1.56616" transform="rotate(15 50.7295 100.332)" fill="url(#paint3_radial)"/>
<path d="M56.1329 125.741C56.2435 125.329 56.6677 125.084 57.0804 125.194L59.0887 125.732C59.5014 125.843 59.7463 126.267 59.6357 126.68L58.7848 129.856C58.6742 130.268 58.25 130.513 57.8373 130.403L55.829 129.865C55.4163 129.754 55.1714 129.33 55.2819 128.917L56.1329 125.741Z" fill="white"/>
<path d="M63.9133 128.277C64.326 128.387 64.5709 128.811 64.4603 129.224L63.9222 131.232C63.8116 131.645 63.3874 131.89 62.9747 131.779L59.7988 130.928C59.3861 130.818 59.1412 130.394 59.2518 129.981L59.7899 127.973C59.9005 127.56 60.3247 127.315 60.7374 127.426L63.9133 128.277Z" fill="white"/>
<path d="M57.7121 130.87C58.1248 130.98 58.3697 131.405 58.2592 131.817L57.721 133.826C57.6105 134.238 57.1862 134.483 56.7735 134.373L53.5977 133.522C53.185 133.411 52.94 132.987 53.0506 132.574L53.5887 130.566C53.6993 130.153 54.1235 129.908 54.5362 130.019L57.7121 130.87Z" fill="white"/>
<path d="M61.378 136.057C61.2674 136.47 60.8432 136.715 60.4305 136.604L58.4223 136.066C58.0096 135.955 57.7646 135.531 57.8752 135.118L58.7262 131.942C58.8368 131.53 59.261 131.285 59.6737 131.395L61.682 131.934C62.0947 132.044 62.3396 132.468 62.229 132.881L61.378 136.057Z" fill="white"/>
<path d="M66.5202 130.877C66.382 131.393 65.8517 131.699 65.3358 131.561C64.82 131.423 64.5138 130.893 64.6521 130.377C64.7903 129.861 65.3205 129.555 65.8364 129.693C66.3523 129.831 66.6584 130.361 66.5202 130.877Z" fill="white"/>
<path d="M59.4174 124.319C59.2792 124.835 58.7489 125.141 58.233 125.003C57.7172 124.864 57.411 124.334 57.5493 123.818C57.6875 123.302 58.2177 122.996 58.7336 123.134C59.2495 123.273 59.5556 123.803 59.4174 124.319Z" fill="white"/>
<path d="M60.0084 137.993C59.8702 138.508 59.3399 138.815 58.824 138.676C58.3082 138.538 58.002 138.008 58.1402 137.492C58.2785 136.976 58.8087 136.67 59.3246 136.808C59.8405 136.946 60.1466 137.477 60.0084 137.993Z" fill="white"/>
<path d="M52.8464 131.468C52.7082 131.984 52.1779 132.29 51.662 132.152C51.1461 132.014 50.84 131.484 50.9782 130.968C51.1164 130.452 51.6467 130.146 52.1626 130.284C52.6785 130.422 52.9846 130.952 52.8464 131.468Z" fill="white"/>
</g>
</g>
<path d="M60.5925 197.307C60.5925 197.307 45.8021 193.104 38.7222 188.494C29.2385 182.322 23.5903 173.076 21.4624 169.057C17.0095 160.678 12.0444 137.34 18.5201 134.74C24.3784 132.389 28.2533 156.502 28.2533 156.502C28.2533 156.502 20.2408 132.573 27.8199 131.023C35.399 129.486 38.3019 157.723 38.3019 157.723C38.3019 157.723 30.6308 132.953 38.6959 132.599C44.7907 132.336 48.8627 157.762 48.8627 157.762C48.8627 157.762 42.4132 136.421 48.6656 135.882C55.5748 135.278 60.8158 158.524 60.8158 158.524C76.946 159.811 86.3772 173.023 88.1504 179.104C88.6233 180.798 60.5925 197.307 60.5925 197.307Z" fill="#EB9481"/>
<path d="M30.4745 164.947C29.4368 162.176 28.3597 159.366 27.5715 156.503C26.7834 153.64 26.0873 150.75 25.5618 147.835C24.2877 140.664 24.603 135.988 24.6161 136.277C24.8919 143.172 27.5716 153.456 28.3597 156.319C29.1478 159.169 29.7914 162.071 30.5795 164.921C30.6058 165 30.5007 165.013 30.4745 164.947Z" fill="#263238"/>
<path d="M40.8642 162.282C39.682 158.683 38.3816 155.137 37.3701 151.486C36.3587 147.848 35.7151 144.302 34.9533 140.612C34.9007 140.323 35.0715 140.389 35.1371 140.678C36.0435 144.342 37.16 147.665 38.1189 151.316C39.0646 154.953 39.879 158.67 40.9561 162.269C40.9692 162.321 40.8773 162.334 40.8642 162.282Z" fill="#263238"/>
<path d="M50.1896 161.586C48.1142 156.175 47.024 150.384 46.1045 144.671C46.0651 144.382 46.2752 144.487 46.3409 144.776C47.5888 150.423 48.5345 154.862 50.3866 161.508C50.3997 161.626 50.229 161.705 50.1896 161.586Z" fill="#263238"/>
<path d="M45.002 201.787L99.7237 206.41C99.7237 206.41 116.681 238.389 111.769 248.2C106.515 258.68 71.115 250.905 60.7512 232.308L45.002 201.787Z" fill="#263238"/>
<path d="M100.314 218.532C94.2718 218.348 88.2427 217.835 82.2136 217.31C76.1845 216.785 70.1553 216.273 64.1262 215.603C60.7242 215.222 57.3221 214.854 53.9332 214.355C53.8413 214.342 53.8413 214.184 53.9332 214.198C59.9623 214.381 66.0046 214.867 72.0206 215.353C78.0497 215.839 84.0919 216.391 90.1079 216.995C93.5099 217.336 96.912 217.744 100.301 218.243C100.485 218.256 100.485 218.545 100.314 218.532Z" fill="#37474F"/>
<path d="M108.42 225.203C109.26 226.49 110.062 227.803 110.81 229.156C110.863 229.261 111.034 229.182 110.994 229.077C110.272 227.186 109.221 225.452 107.96 223.876C107.382 222.287 106.778 220.698 106.121 219.122C105.031 216.495 103.888 213.895 102.666 211.334C102.036 210.021 100.236 206.357 99.8685 206.16C99.6977 206.068 98.3974 206.107 98.0427 206.107C97.9113 206.107 97.8588 206.278 97.9901 206.304C98.4762 206.383 99.6321 206.554 99.6583 206.619C99.724 206.724 101.55 210.98 102.102 212.214C103.284 214.828 104.426 217.454 105.543 220.094C107.71 225.269 109.878 230.456 111.717 235.749C111.73 235.775 111.769 235.762 111.769 235.736C110.731 232.203 109.641 228.683 108.42 225.203Z" fill="#37474F"/>
<path d="M162.075 156.424C156.309 158.499 145.118 150.592 140.258 143.71C139.929 143.238 140.1 137.853 139.995 131.286C139.916 127.307 139.732 122.881 139.272 118.849L165.254 122.119C165.254 122.119 163.73 130.853 164.571 137.866C164.65 138.457 164.768 138.996 164.939 139.495C164.952 139.573 164.991 139.665 165.005 139.77C165.871 142.87 167.645 154.414 162.075 156.424Z" fill="#EB9481"/>
<path d="M164.339 133.956C153.476 139.419 141.024 134.586 141.024 134.586C141.024 134.586 140.643 134.232 140.026 133.641C140.026 132.879 140.012 132.104 139.999 131.303C139.921 127.324 139.75 122.898 139.29 118.866L165.259 122.136C165.259 122.136 164.234 127.993 164.339 133.956Z" fill="#263238"/>
<path d="M138.276 82.6886C134.006 90.7922 134.543 117.061 140.083 124.122C148.117 134.355 163.419 138.577 172.499 129.383C181.314 120.468 179.976 86.1982 173.589 79.4841C164.189 69.5818 144.583 70.7207 138.276 82.6886Z" fill="#EB9481"/>
<path d="M160.1 102.394C160.079 102.33 159.948 102.474 159.951 102.545C160.05 104.338 159.839 106.385 158.115 106.895C158.062 106.916 158.074 107.004 158.136 107.001C160.244 106.808 160.495 104.094 160.1 102.394Z" fill="#263238"/>
<path d="M158.514 100.503C155.552 100.132 155.428 105.823 158.164 106.172C160.856 106.517 160.984 100.814 158.514 100.503Z" fill="#263238"/>
<path d="M170.872 102.782C170.881 102.717 171.012 102.88 171.015 102.95C170.92 104.712 171.116 106.756 172.761 107.491C172.812 107.512 172.806 107.606 172.738 107.592C170.719 107.118 170.493 104.402 170.872 102.782Z" fill="#263238"/>
<path d="M172.588 101.043C175.546 101.097 175.649 106.808 172.908 106.759C170.21 106.714 170.107 101.003 172.588 101.043Z" fill="#263238"/>
<path d="M156.586 97.6354C157.387 97.5078 158.101 97.2626 158.869 97.0669C159.735 96.8422 160.468 96.7418 161.058 96.0488C161.372 95.669 161.265 94.9401 160.89 94.5825C160.023 93.7513 158.873 93.7647 157.8 94.0013C156.646 94.26 155.831 94.7384 155.158 95.658C154.514 96.5349 155.539 97.8004 156.586 97.6354Z" fill="#263238"/>
<path d="M175.23 98.2669C174.43 98.0649 173.712 97.7599 172.938 97.4869C172.065 97.1736 171.336 97.0138 170.737 96.268C170.412 95.8648 170.489 95.1488 170.837 94.8278C171.654 94.086 172.81 94.2152 173.879 94.5402C175.036 94.9006 175.847 95.4605 176.564 96.4307C177.249 97.3739 176.292 98.5345 175.23 98.2669Z" fill="#263238"/>
<path d="M157.919 118.584C158.343 119.027 158.751 119.627 159.396 119.739C160.016 119.841 160.749 119.637 161.323 119.476C161.386 119.461 161.435 119.521 161.401 119.575C160.917 120.193 159.936 120.527 159.113 120.316C158.302 120.109 157.924 119.387 157.735 118.659C157.72 118.544 157.858 118.519 157.919 118.584Z" fill="#263238"/>
<path d="M160.158 113.173C161.172 114.811 162.687 115.789 164.339 116.24C165.081 116.453 165.854 116.54 166.629 116.544C166.777 116.547 166.925 116.551 167.065 116.537C167.2 116.536 167.322 116.529 167.479 116.508C167.692 116.496 167.825 116.341 167.867 116.15L167.871 116.138C167.868 116.067 167.868 116.026 167.852 115.95C167.852 115.95 167.852 115.95 167.856 115.938L167.854 115.785C167.929 114.428 167.836 112.325 167.836 112.325C168.354 112.615 171.013 114.008 170.983 113.29C170.746 107.345 170.488 100.74 168.945 94.7729C168.9 94.5747 168.595 94.5917 168.596 94.7865C168.58 100.492 169.625 106.232 169.712 111.979C168.869 111.601 167.489 110.898 166.733 110.846C166.523 110.887 166.983 114.883 166.9 115.501C166.9 115.501 166.904 115.531 166.891 115.567C164.474 115.642 162.657 114.793 160.356 113.043C160.197 112.911 160.051 113.019 160.158 113.173Z" fill="#263238"/>
<path d="M165.443 116.159C165.443 116.159 164.108 117.594 162.379 117.941C161.737 118.076 161.077 118.067 160.382 117.798C158.971 117.239 159.021 115.964 159.35 114.912C159.626 114.043 160.106 113.324 160.106 113.324C160.106 113.324 162.09 115.506 165.443 116.159Z" fill="#263238"/>
<path d="M162.367 117.994C161.727 118.129 161.068 118.12 160.374 117.852C158.966 117.293 159.015 116.02 159.343 114.969C160.884 115.323 162.343 116.528 162.367 117.994Z" fill="#FF99BA"/>
<path d="M178.88 87.1943C169.064 93.6516 155.069 83.2115 155.069 83.2115C152.069 90.7766 144.218 89.6822 144.218 89.6822C144.218 89.6822 142.735 106.173 138.263 106.036C131.454 105.832 128.699 83.2434 130.717 78.8584C132.734 74.4733 138.476 73.4719 138.476 73.4719C138.476 73.4719 138.8 70.0405 142.915 67.0123C147.463 63.6453 163.635 68.698 163.635 68.698C163.635 68.698 164.653 65.8093 167.583 63.3852C169.453 61.8508 171.99 62.2344 173.66 64.0706C172.909 65.1401 172.366 66.5016 172.152 68.1061C171.492 72.9267 175.546 73.0195 175.376 68.6276C175.303 66.6717 174.625 65.1242 173.66 64.0706C175.579 61.2534 178.817 60.3946 180.846 61.973C184.52 64.8374 187.043 81.8172 178.88 87.1943Z" fill="#263238"/>
<path d="M140.823 105.06C140.823 105.06 136.072 95.6869 131.908 96.9432C127.745 98.1995 130.478 110.935 134.779 113.473C139.079 116.01 141.309 112.35 141.309 112.35L140.823 105.06Z" fill="#EB9481"/>
<path d="M132.762 100.581C132.695 100.568 132.664 100.651 132.723 100.689C135.713 102.573 136.969 105.73 137.7 108.895C136.924 107.579 135.726 106.695 133.995 107.449C133.906 107.495 133.971 107.631 134.06 107.626C135.399 107.619 136.307 108.029 137.034 109.202C137.555 110.03 137.845 111.012 138.174 111.928C138.279 112.231 138.818 112.189 138.755 111.848C138.752 111.819 138.743 111.802 138.74 111.773C139.391 107.933 137.049 101.865 132.762 100.581Z" fill="#263238"/>
<path d="M164.926 139.232L159.396 154.519L140.061 136.277L135.017 142.555C135.017 142.555 154.378 171.973 154.431 170.607L160.118 157.461L169.379 166.103L167.802 143.579L164.926 139.232Z" fill="#37474F"/>
<path d="M169.221 154.926C168.84 151.223 168.551 147.467 167.999 143.776C167.986 143.645 167.776 143.592 167.75 143.75C167.145 147.375 168.695 161.546 168.8 164.96C168.787 164.947 168.774 164.934 168.761 164.921C168.38 164.54 160.197 157.33 160.131 157.448C158.87 159.549 154.693 169.124 154.417 169.99C151.357 165.315 139.653 148.347 136.08 143.96C135.975 143.829 135.778 143.947 135.857 144.091C138.589 149.043 154.089 171.908 154.312 171.829C154.47 171.947 159.658 160.14 160.249 157.934C161.642 159.523 169.93 167.692 169.943 167.14C169.969 163.424 169.615 158.643 169.221 154.926Z" fill="#263238"/>
<path d="M293.656 140.804C291.87 161.2 290.372 182.2 291.725 202.649C292.776 218.579 299.028 231.857 315.408 236.296C330.606 240.394 352.41 240.827 365.69 231.095C371.877 226.551 374.189 219.945 374.031 212.459C373.808 202.044 367.398 144.823 365.506 126.974C364.377 116.113 363.273 105.094 360.213 94.5352C353.79 72.3661 342.94 72.2085 341.442 71.7095C340.168 70.8295 331.959 66.8501 319.979 70.2517C313.359 72.1297 308.591 76.4112 305.491 82.3343C296.414 99.6572 295.337 121.708 293.656 140.804Z" fill="#263238"/>
<path d="M344.74 74.8486C357.599 81.3627 360.253 95.7174 362.998 108.601C366.82 126.528 370.354 144.521 372.994 162.658C374.268 171.378 375.345 180.125 376.159 188.911C376.934 197.317 378.287 206.287 377.447 214.731C376.068 228.679 363.077 234.628 350.611 236.218C350.007 236.296 349.862 235.377 350.467 235.285C357.573 234.116 364.837 232.383 370.262 227.313C377.21 220.812 376.711 212.026 376.199 203.279C375.319 188.386 373.598 173.559 371.339 158.81C369.08 144.048 366.295 129.365 363.287 114.748C360.423 100.826 358.598 82.5579 344.648 75.085C344.53 74.9931 344.608 74.7698 344.74 74.8486Z" fill="#263238"/>
<path d="M299.082 94.3511C301.907 83.7525 307.791 73.5217 319.14 70.7769C319.166 70.7769 319.166 70.8031 319.14 70.8163C304.455 74.9795 300.409 90.7526 298.045 103.952C295.562 117.847 293.605 131.834 292.134 145.873C290.728 159.374 289.599 173.007 289.428 186.586C289.244 201.243 291.451 215.059 299.713 227.405C299.884 227.654 299.529 227.956 299.332 227.707C291.122 217.673 288.732 204.119 288.456 191.498C288.088 174.885 289.704 158.035 291.543 141.539C293.277 125.858 295.01 109.612 299.082 94.3511Z" fill="#263238"/>
<path d="M256.827 258.36C256.866 258.111 256.906 257.861 256.958 257.612C256.893 257.927 256.84 258.229 256.801 258.544C256.814 258.479 256.814 258.413 256.827 258.36Z" fill="#71357C"/>
<path d="M298.586 265.741C298.454 265.82 298.31 265.899 298.152 265.978L298.086 265.873L298.073 265.859C298.218 265.82 298.375 265.794 298.52 265.767C298.546 265.754 298.559 265.754 298.586 265.741Z" fill="#71357C"/>
<path d="M317.407 152.204C291.281 178.681 258.403 234.393 264.537 245.674C271.368 258.256 307.739 221.128 307.608 218.961C307.503 217.319 320.297 183.488 330.017 158.876C339.698 134.29 323.857 145.651 317.407 152.204Z" fill="#C95F50"/>
<path d="M307.844 219C308.961 215.389 326.378 170.762 331.357 156.656C336.335 142.551 331.724 138.178 317.499 151.101C303.273 164.024 272.116 207.193 265.01 230.111C258.153 252.188 269.529 252.188 284.516 242.01C296.784 233.683 307.844 219 307.844 219Z" fill="#71357C"/>
<path d="M333.222 149.039C333.209 149.302 333.169 149.565 333.13 149.84C332.959 150.077 332.696 150.234 332.381 150.234C331.895 150.234 331.488 149.84 331.488 149.341C331.488 148.855 331.895 148.448 332.381 148.448C332.775 148.448 333.09 148.698 333.222 149.039ZM303.588 167.715C303.089 167.715 302.695 168.109 302.695 168.608C302.695 169.107 303.089 169.501 303.588 169.501C304.088 169.501 304.482 169.107 304.482 168.608C304.482 168.109 304.075 167.715 303.588 167.715ZM317.985 167.715C317.486 167.715 317.092 168.109 317.092 168.608C317.092 169.107 317.486 169.501 317.985 169.501C318.484 169.501 318.878 169.107 318.878 168.608C318.878 168.109 318.471 167.715 317.985 167.715ZM310.787 158.482C310.288 158.482 309.893 158.876 309.893 159.375C309.893 159.874 310.288 160.268 310.787 160.268C311.286 160.268 311.68 159.874 311.68 159.375C311.68 158.876 311.273 158.482 310.787 158.482ZM325.183 158.482C324.684 158.482 324.29 158.876 324.29 159.375C324.29 159.874 324.684 160.268 325.183 160.268C325.682 160.268 326.076 159.874 326.076 159.375C326.076 158.876 325.682 158.482 325.183 158.482ZM289.179 186.968C288.68 186.968 288.286 187.362 288.286 187.861C288.286 188.36 288.68 188.754 289.179 188.754C289.678 188.754 290.072 188.36 290.072 187.861C290.072 187.362 289.678 186.968 289.179 186.968ZM303.588 186.968C303.089 186.968 302.695 187.362 302.695 187.861C302.695 188.36 303.089 188.754 303.588 188.754C304.088 188.754 304.482 188.36 304.482 187.861C304.482 187.362 304.075 186.968 303.588 186.968ZM317.985 186.968C317.486 186.968 317.092 187.362 317.092 187.861C317.092 188.36 317.486 188.754 317.985 188.754C318.484 188.754 318.878 188.36 318.878 187.861C318.878 187.362 318.471 186.968 317.985 186.968ZM296.377 177.749C295.878 177.749 295.484 178.143 295.484 178.642C295.484 179.141 295.878 179.535 296.377 179.535C296.876 179.535 297.27 179.141 297.27 178.642C297.27 178.143 296.876 177.749 296.377 177.749ZM310.787 177.749C310.288 177.749 309.893 178.143 309.893 178.642C309.893 179.141 310.288 179.535 310.787 179.535C311.286 179.535 311.68 179.141 311.68 178.642C311.68 178.143 311.273 177.749 310.787 177.749ZM289.179 206.235C288.68 206.235 288.286 206.629 288.286 207.128C288.286 207.627 288.68 208.021 289.179 208.021C289.678 208.021 290.072 207.627 290.072 207.128C290.072 206.629 289.678 206.235 289.179 206.235ZM303.588 206.235C303.089 206.235 302.695 206.629 302.695 207.128C302.695 207.627 303.089 208.021 303.588 208.021C304.088 208.021 304.482 207.627 304.482 207.128C304.482 206.629 304.075 206.235 303.588 206.235ZM281.981 197.015C281.482 197.015 281.088 197.409 281.088 197.908C281.088 198.407 281.482 198.801 281.981 198.801C282.48 198.801 282.874 198.407 282.874 197.908C282.874 197.409 282.48 197.015 281.981 197.015ZM296.377 197.015C295.878 197.015 295.484 197.409 295.484 197.908C295.484 198.407 295.878 198.801 296.377 198.801C296.876 198.801 297.27 198.407 297.27 197.908C297.27 197.409 296.876 197.015 296.377 197.015ZM310.787 197.015C310.288 197.015 309.893 197.409 309.893 197.908C309.893 198.407 310.288 198.801 310.787 198.801C311.286 198.801 311.68 198.407 311.68 197.908C311.68 197.409 311.273 197.015 310.787 197.015ZM274.783 225.501C274.284 225.501 273.89 225.895 273.89 226.394C273.89 226.894 274.284 227.288 274.783 227.288C275.282 227.288 275.676 226.894 275.676 226.394C275.676 225.895 275.269 225.501 274.783 225.501ZM289.179 225.501C288.68 225.501 288.286 225.895 288.286 226.394C288.286 226.894 288.68 227.288 289.179 227.288C289.678 227.288 290.072 226.894 290.072 226.394C290.072 225.895 289.678 225.501 289.179 225.501ZM281.981 216.269C281.482 216.269 281.088 216.663 281.088 217.162C281.088 217.661 281.482 218.055 281.981 218.055C282.48 218.055 282.874 217.661 282.874 217.162C282.874 216.676 282.48 216.269 281.981 216.269ZM296.377 216.269C295.878 216.269 295.484 216.663 295.484 217.162C295.484 217.661 295.878 218.055 296.377 218.055C296.876 218.055 297.27 217.661 297.27 217.162C297.27 216.676 296.876 216.269 296.377 216.269ZM274.783 244.755C274.284 244.755 273.89 245.149 273.89 245.648C273.89 246.147 274.284 246.541 274.783 246.541C275.282 246.541 275.676 246.147 275.676 245.648C275.676 245.162 275.269 244.755 274.783 244.755ZM267.585 235.535C267.085 235.535 266.691 235.929 266.691 236.428C266.691 236.927 267.085 237.321 267.585 237.321C268.084 237.321 268.478 236.927 268.478 236.428C268.478 235.929 268.071 235.535 267.585 235.535ZM281.981 235.535C281.482 235.535 281.088 235.929 281.088 236.428C281.088 236.927 281.482 237.321 281.981 237.321C282.48 237.321 282.874 236.927 282.874 236.428C282.874 235.929 282.48 235.535 281.981 235.535Z" fill="white"/>
<path d="M297.52 259.529L300.12 243.887L303.864 216.137C303.864 216.137 295.037 200.718 300.16 189.66C302.747 184.052 325.432 149.209 334.981 142.275C343.94 135.774 356.944 142.735 361.791 147.83C380.443 167.465 389.243 206.444 395.942 259.529H328.23L320.493 251.124L315.699 259.529H297.52Z" fill="#71357C"/>
<path d="M333.274 149.341C333.274 149.84 332.88 150.234 332.381 150.234C331.882 150.234 331.488 149.84 331.488 149.341C331.488 148.842 331.882 148.448 332.381 148.448C332.88 148.448 333.274 148.855 333.274 149.341ZM346.777 148.448C346.278 148.448 345.884 148.842 345.884 149.341C345.884 149.84 346.278 150.234 346.777 150.234C347.277 150.234 347.671 149.84 347.671 149.341C347.671 148.842 347.277 148.448 346.777 148.448ZM361.187 148.448C360.688 148.448 360.294 148.842 360.294 149.341C360.294 149.84 360.688 150.234 361.187 150.234C361.686 150.234 362.08 149.84 362.08 149.341C362.08 148.842 361.673 148.448 361.187 148.448ZM340.459 139.924C339.881 140.029 339.303 140.174 338.726 140.371C338.831 140.739 339.185 141.014 339.579 141.014C340.078 141.014 340.473 140.607 340.473 140.121C340.473 140.056 340.459 139.99 340.459 139.924ZM317.985 167.714C317.486 167.714 317.092 168.108 317.092 168.607C317.092 169.107 317.486 169.501 317.985 169.501C318.484 169.501 318.878 169.107 318.878 168.607C318.878 168.108 318.471 167.714 317.985 167.714ZM332.381 167.714C331.882 167.714 331.488 168.108 331.488 168.607C331.488 169.107 331.882 169.501 332.381 169.501C332.88 169.501 333.274 169.107 333.274 168.607C333.274 168.108 332.88 167.714 332.381 167.714ZM346.777 167.714C346.278 167.714 345.884 168.108 345.884 168.607C345.884 169.107 346.278 169.501 346.777 169.501C347.277 169.501 347.671 169.107 347.671 168.607C347.671 168.108 347.277 167.714 346.777 167.714ZM361.187 167.714C360.688 167.714 360.294 168.108 360.294 168.607C360.294 169.107 360.688 169.501 361.187 169.501C361.686 169.501 362.08 169.107 362.08 168.607C362.08 168.108 361.673 167.714 361.187 167.714ZM374.953 167.977C374.795 168.135 374.69 168.358 374.69 168.607C374.69 169.093 375.097 169.501 375.583 169.501H375.649C375.426 168.988 375.189 168.476 374.953 167.977ZM325.183 158.482C324.684 158.482 324.29 158.876 324.29 159.375C324.29 159.874 324.684 160.268 325.183 160.268C325.682 160.268 326.076 159.874 326.076 159.375C326.076 158.876 325.682 158.482 325.183 158.482ZM339.579 158.482C339.08 158.482 338.686 158.876 338.686 159.375C338.686 159.874 339.08 160.268 339.579 160.268C340.078 160.268 340.473 159.874 340.473 159.375C340.473 158.876 340.078 158.482 339.579 158.482ZM353.989 158.482C353.49 158.482 353.096 158.876 353.096 159.375C353.096 159.874 353.49 160.268 353.989 160.268C354.488 160.268 354.882 159.874 354.882 159.375C354.882 158.876 354.475 158.482 353.989 158.482ZM368.385 158.482C367.886 158.482 367.492 158.876 367.492 159.375C367.492 159.874 367.886 160.268 368.385 160.268C368.884 160.268 369.278 159.874 369.278 159.375C369.278 158.876 368.884 158.482 368.385 158.482ZM303.589 186.968C303.089 186.968 302.695 187.362 302.695 187.861C302.695 188.36 303.089 188.754 303.589 188.754C304.088 188.754 304.482 188.36 304.482 187.861C304.482 187.362 304.075 186.968 303.589 186.968ZM317.985 186.968C317.486 186.968 317.092 187.362 317.092 187.861C317.092 188.36 317.486 188.754 317.985 188.754C318.484 188.754 318.878 188.36 318.878 187.861C318.878 187.362 318.471 186.968 317.985 186.968ZM332.381 186.968C331.882 186.968 331.488 187.362 331.488 187.861C331.488 188.36 331.882 188.754 332.381 188.754C332.88 188.754 333.274 188.36 333.274 187.861C333.274 187.362 332.88 186.968 332.381 186.968ZM346.777 186.968C346.278 186.968 345.884 187.362 345.884 187.861C345.884 188.36 346.278 188.754 346.777 188.754C347.277 188.754 347.671 188.36 347.671 187.861C347.671 187.362 347.277 186.968 346.777 186.968ZM361.187 186.968C360.688 186.968 360.294 187.362 360.294 187.861C360.294 188.36 360.688 188.754 361.187 188.754C361.686 188.754 362.08 188.36 362.08 187.861C362.08 187.362 361.673 186.968 361.187 186.968ZM375.583 186.968C375.084 186.968 374.69 187.362 374.69 187.861C374.69 188.36 375.084 188.754 375.583 188.754C376.082 188.754 376.476 188.36 376.476 187.861C376.476 187.362 376.082 186.968 375.583 186.968ZM310.787 177.748C310.288 177.748 309.893 178.142 309.893 178.641C309.893 179.14 310.288 179.534 310.787 179.534C311.286 179.534 311.68 179.14 311.68 178.641C311.68 178.142 311.273 177.748 310.787 177.748ZM325.183 177.748C324.684 177.748 324.29 178.142 324.29 178.641C324.29 179.14 324.684 179.534 325.183 179.534C325.682 179.534 326.076 179.14 326.076 178.641C326.076 178.142 325.682 177.748 325.183 177.748ZM339.579 177.748C339.08 177.748 338.686 178.142 338.686 178.641C338.686 179.14 339.08 179.534 339.579 179.534C340.078 179.534 340.473 179.14 340.473 178.641C340.473 178.142 340.078 177.748 339.579 177.748ZM353.989 177.748C353.49 177.748 353.096 178.142 353.096 178.641C353.096 179.14 353.49 179.534 353.989 179.534C354.488 179.534 354.882 179.14 354.882 178.641C354.882 178.142 354.475 177.748 353.989 177.748ZM368.385 177.748C367.886 177.748 367.492 178.142 367.492 178.641C367.492 179.14 367.886 179.534 368.385 179.534C368.884 179.534 369.278 179.14 369.278 178.641C369.278 178.142 368.884 177.748 368.385 177.748ZM303.589 206.234C303.089 206.234 302.695 206.628 302.695 207.127C302.695 207.627 303.089 208.021 303.589 208.021C304.088 208.021 304.482 207.627 304.482 207.127C304.482 206.628 304.075 206.234 303.589 206.234ZM317.985 206.234C317.486 206.234 317.092 206.628 317.092 207.127C317.092 207.627 317.486 208.021 317.985 208.021C318.484 208.021 318.878 207.627 318.878 207.127C318.878 206.628 318.471 206.234 317.985 206.234ZM332.381 206.234C331.882 206.234 331.488 206.628 331.488 207.127C331.488 207.627 331.882 208.021 332.381 208.021C332.88 208.021 333.274 207.627 333.274 207.127C333.274 206.628 332.88 206.234 332.381 206.234ZM346.777 206.234C346.278 206.234 345.884 206.628 345.884 207.127C345.884 207.627 346.278 208.021 346.777 208.021C347.277 208.021 347.671 207.627 347.671 207.127C347.671 206.628 347.277 206.234 346.777 206.234ZM361.187 206.234C360.688 206.234 360.294 206.628 360.294 207.127C360.294 207.627 360.688 208.021 361.187 208.021C361.686 208.021 362.08 207.627 362.08 207.127C362.08 206.628 361.673 206.234 361.187 206.234ZM375.583 206.234C375.084 206.234 374.69 206.628 374.69 207.127C374.69 207.627 375.084 208.021 375.583 208.021C376.082 208.021 376.476 207.627 376.476 207.127C376.476 206.628 376.082 206.234 375.583 206.234ZM310.787 197.015C310.288 197.015 309.893 197.409 309.893 197.908C309.893 198.407 310.288 198.801 310.787 198.801C311.286 198.801 311.68 198.407 311.68 197.908C311.68 197.409 311.273 197.015 310.787 197.015ZM325.183 197.015C324.684 197.015 324.29 197.409 324.29 197.908C324.29 198.407 324.684 198.801 325.183 198.801C325.682 198.801 326.076 198.407 326.076 197.908C326.076 197.409 325.682 197.015 325.183 197.015ZM339.579 197.015C339.08 197.015 338.686 197.409 338.686 197.908C338.686 198.407 339.08 198.801 339.579 198.801C340.078 198.801 340.473 198.407 340.473 197.908C340.473 197.409 340.078 197.015 339.579 197.015ZM353.989 197.015C353.49 197.015 353.096 197.409 353.096 197.908C353.096 198.407 353.49 198.801 353.989 198.801C354.488 198.801 354.882 198.407 354.882 197.908C354.882 197.409 354.475 197.015 353.989 197.015ZM368.385 197.015C367.886 197.015 367.492 197.409 367.492 197.908C367.492 198.407 367.886 198.801 368.385 198.801C368.884 198.801 369.278 198.407 369.278 197.908C369.278 197.409 368.884 197.015 368.385 197.015ZM382.781 197.015C382.282 197.015 381.888 197.409 381.888 197.908C381.888 198.407 382.282 198.801 382.781 198.801C383.281 198.801 383.675 198.407 383.675 197.908C383.675 197.409 383.281 197.015 382.781 197.015ZM303.589 225.501C303.089 225.501 302.695 225.895 302.695 226.394C302.695 226.893 303.089 227.287 303.589 227.287C304.088 227.287 304.482 226.893 304.482 226.394C304.482 225.895 304.075 225.501 303.589 225.501ZM317.985 225.501C317.486 225.501 317.092 225.895 317.092 226.394C317.092 226.893 317.486 227.287 317.985 227.287C318.484 227.287 318.878 226.893 318.878 226.394C318.878 225.895 318.471 225.501 317.985 225.501ZM332.381 225.501C331.882 225.501 331.488 225.895 331.488 226.394C331.488 226.893 331.882 227.287 332.381 227.287C332.88 227.287 333.274 226.893 333.274 226.394C333.274 225.895 332.88 225.501 332.381 225.501ZM346.777 225.501C346.278 225.501 345.884 225.895 345.884 226.394C345.884 226.893 346.278 227.287 346.777 227.287C347.277 227.287 347.671 226.893 347.671 226.394C347.671 225.895 347.277 225.501 346.777 225.501ZM361.187 225.501C360.688 225.501 360.294 225.895 360.294 226.394C360.294 226.893 360.688 227.287 361.187 227.287C361.686 227.287 362.08 226.893 362.08 226.394C362.08 225.895 361.673 225.501 361.187 225.501ZM375.583 225.501C375.084 225.501 374.69 225.895 374.69 226.394C374.69 226.893 375.084 227.287 375.583 227.287C376.082 227.287 376.476 226.893 376.476 226.394C376.476 225.895 376.082 225.501 375.583 225.501ZM389.98 225.501C389.48 225.501 389.086 225.895 389.086 226.394C389.086 226.893 389.48 227.287 389.98 227.287C390.479 227.287 390.873 226.893 390.873 226.394C390.873 225.895 390.479 225.501 389.98 225.501ZM310.787 216.268C310.288 216.268 309.893 216.662 309.893 217.161C309.893 217.66 310.288 218.054 310.787 218.054C311.286 218.054 311.68 217.66 311.68 217.161C311.68 216.675 311.273 216.268 310.787 216.268ZM325.183 216.268C324.684 216.268 324.29 216.662 324.29 217.161C324.29 217.66 324.684 218.054 325.183 218.054C325.682 218.054 326.076 217.66 326.076 217.161C326.076 216.675 325.682 216.268 325.183 216.268ZM339.579 216.268C339.08 216.268 338.686 216.662 338.686 217.161C338.686 217.66 339.08 218.054 339.579 218.054C340.078 218.054 340.473 217.66 340.473 217.161C340.473 216.675 340.078 216.268 339.579 216.268ZM353.989 216.268C353.49 216.268 353.096 216.662 353.096 217.161C353.096 217.66 353.49 218.054 353.989 218.054C354.488 218.054 354.882 217.66 354.882 217.161C354.882 216.675 354.475 216.268 353.989 216.268ZM368.385 216.268C367.886 216.268 367.492 216.662 367.492 217.161C367.492 217.66 367.886 218.054 368.385 218.054C368.884 218.054 369.278 217.66 369.278 217.161C369.278 216.675 368.884 216.268 368.385 216.268ZM382.781 216.268C382.282 216.268 381.888 216.662 381.888 217.161C381.888 217.66 382.282 218.054 382.781 218.054C383.281 218.054 383.675 217.66 383.675 217.161C383.675 216.675 383.281 216.268 382.781 216.268ZM303.589 244.754C303.089 244.754 302.695 245.148 302.695 245.647C302.695 246.147 303.089 246.541 303.589 246.541C304.088 246.541 304.482 246.147 304.482 245.647C304.482 245.162 304.075 244.754 303.589 244.754ZM317.985 244.754C317.486 244.754 317.092 245.148 317.092 245.647C317.092 246.147 317.486 246.541 317.985 246.541C318.484 246.541 318.878 246.147 318.878 245.647C318.878 245.162 318.471 244.754 317.985 244.754ZM332.381 244.754C331.882 244.754 331.488 245.148 331.488 245.647C331.488 246.147 331.882 246.541 332.381 246.541C332.88 246.541 333.274 246.147 333.274 245.647C333.274 245.162 332.88 244.754 332.381 244.754ZM346.777 244.754C346.278 244.754 345.884 245.148 345.884 245.647C345.884 246.147 346.278 246.541 346.777 246.541C347.277 246.541 347.671 246.147 347.671 245.647C347.671 245.162 347.277 244.754 346.777 244.754ZM361.187 244.754C360.688 244.754 360.294 245.148 360.294 245.647C360.294 246.147 360.688 246.541 361.187 246.541C361.686 246.541 362.08 246.147 362.08 245.647C362.08 245.162 361.673 244.754 361.187 244.754ZM375.583 244.754C375.084 244.754 374.69 245.148 374.69 245.647C374.69 246.147 375.084 246.541 375.583 246.541C376.082 246.541 376.476 246.147 376.476 245.647C376.476 245.162 376.082 244.754 375.583 244.754ZM389.98 244.754C389.48 244.754 389.086 245.148 389.086 245.647C389.086 246.147 389.48 246.541 389.98 246.541C390.479 246.541 390.873 246.147 390.873 245.647C390.873 245.162 390.479 244.754 389.98 244.754ZM310.787 235.535C310.288 235.535 309.893 235.929 309.893 236.428C309.893 236.927 310.288 237.321 310.787 237.321C311.286 237.321 311.68 236.927 311.68 236.428C311.68 235.929 311.273 235.535 310.787 235.535ZM325.183 235.535C324.684 235.535 324.29 235.929 324.29 236.428C324.29 236.927 324.684 237.321 325.183 237.321C325.682 237.321 326.076 236.927 326.076 236.428C326.076 235.929 325.682 235.535 325.183 235.535ZM339.579 235.535C339.08 235.535 338.686 235.929 338.686 236.428C338.686 236.927 339.08 237.321 339.579 237.321C340.078 237.321 340.473 236.927 340.473 236.428C340.473 235.929 340.078 235.535 339.579 235.535ZM353.989 235.535C353.49 235.535 353.096 235.929 353.096 236.428C353.096 236.927 353.49 237.321 353.989 237.321C354.488 237.321 354.882 236.927 354.882 236.428C354.882 235.929 354.475 235.535 353.989 235.535ZM368.385 235.535C367.886 235.535 367.492 235.929 367.492 236.428C367.492 236.927 367.886 237.321 368.385 237.321C368.884 237.321 369.278 236.927 369.278 236.428C369.278 235.929 368.884 235.535 368.385 235.535ZM382.781 235.535C382.282 235.535 381.888 235.929 381.888 236.428C381.888 236.927 382.282 237.321 382.781 237.321C383.281 237.321 383.675 236.927 383.675 236.428C383.675 235.929 383.281 235.535 382.781 235.535ZM310.787 254.788C310.288 254.788 309.893 255.182 309.893 255.681C309.893 256.18 310.288 256.574 310.787 256.574C311.286 256.574 311.68 256.18 311.68 255.681C311.68 255.182 311.273 254.788 310.787 254.788ZM325.183 254.788C324.684 254.788 324.29 255.182 324.29 255.681C324.29 256.18 324.684 256.574 325.183 256.574C325.682 256.574 326.076 256.18 326.076 255.681C326.076 255.182 325.682 254.788 325.183 254.788ZM339.579 254.788C339.08 254.788 338.686 255.182 338.686 255.681C338.686 256.18 339.08 256.574 339.579 256.574C340.078 256.574 340.473 256.18 340.473 255.681C340.473 255.182 340.078 254.788 339.579 254.788ZM353.989 254.788C353.49 254.788 353.096 255.182 353.096 255.681C353.096 256.18 353.49 256.574 353.989 256.574C354.488 256.574 354.882 256.18 354.882 255.681C354.882 255.182 354.475 254.788 353.989 254.788ZM368.385 254.788C367.886 254.788 367.492 255.182 367.492 255.681C367.492 256.18 367.886 256.574 368.385 256.574C368.884 256.574 369.278 256.18 369.278 255.681C369.278 255.182 368.884 254.788 368.385 254.788ZM382.781 254.788C382.282 254.788 381.888 255.182 381.888 255.681C381.888 256.18 382.282 256.574 382.781 256.574C383.281 256.574 383.675 256.18 383.675 255.681C383.675 255.182 383.281 254.788 382.781 254.788Z" fill="white"/>
<path d="M332.747 159.769C331.985 167.425 331.092 175.069 330.173 182.712C329.253 190.356 328.216 197.973 327.257 205.604C326.18 213.221 325.168 220.852 324.039 228.456L322.318 239.869C321.701 243.664 321.123 247.473 320.466 251.268C320.834 247.433 321.28 243.612 321.687 239.79L323.04 228.324C323.96 220.681 324.984 213.064 325.97 205.433C327.047 197.816 328.058 190.185 329.201 182.581C330.304 174.964 331.46 167.36 332.747 159.769Z" fill="#263238"/>
<path d="M323.815 184.683C323.697 185.445 324.223 186.154 324.984 186.272C325.746 186.39 326.456 185.865 326.574 185.103C326.692 184.342 326.167 183.632 325.405 183.514C324.643 183.396 323.921 183.921 323.815 184.683Z" fill="#263238"/>
<path d="M322.188 198.958C322.069 199.72 322.595 200.429 323.357 200.548C324.118 200.666 324.828 200.14 324.946 199.379C325.064 198.617 324.539 197.908 323.777 197.79C323.015 197.684 322.306 198.197 322.188 198.958Z" fill="#263238"/>
<path d="M320.57 213.247C320.452 214.009 320.978 214.718 321.739 214.837C322.501 214.955 323.21 214.429 323.329 213.668C323.447 212.906 322.922 212.197 322.16 212.079C321.398 211.96 320.689 212.486 320.57 213.247Z" fill="#263238"/>
<path d="M318.942 227.524C318.824 228.286 319.35 228.995 320.111 229.113C320.873 229.232 321.583 228.706 321.701 227.945C321.819 227.183 321.294 226.474 320.532 226.355C319.783 226.25 319.061 226.763 318.942 227.524Z" fill="#263238"/>
<path d="M317.327 241.812C317.209 242.574 317.734 243.283 318.496 243.402C319.258 243.52 319.967 242.994 320.086 242.233C320.204 241.471 319.678 240.762 318.917 240.644C318.155 240.525 317.445 241.051 317.327 241.812Z" fill="#263238"/>
<path d="M300.12 243.888C300.58 239.239 301.066 234.589 301.617 229.953C302.182 225.317 302.668 220.681 303.299 216.045L303.417 216.465C300.724 212.63 299.069 208.257 298.281 203.687C297.9 201.401 297.834 199.09 297.979 196.765C298.176 194.401 298.885 192.182 299.686 190.041C301.355 185.76 303.68 181.807 306.149 178.011C308.632 174.202 311.377 170.578 314.306 167.124C311.64 170.788 309.17 174.57 306.819 178.431C304.494 182.292 302.392 186.298 300.777 190.461C300.015 192.55 299.371 194.703 299.214 196.87C299.082 199.064 299.214 201.296 299.542 203.49C300.225 207.85 301.828 212.171 304.297 215.769L304.442 215.979L304.415 216.203C303.785 220.826 303.036 225.435 302.353 230.058C301.67 234.681 300.908 239.291 300.12 243.888Z" fill="#263238"/>
<path d="M306.754 178.103C306.754 177.472 306.898 176.855 307.069 176.264C307.227 175.66 307.463 175.082 307.7 174.518C307.949 173.953 308.212 173.401 308.54 172.863C308.856 172.324 309.184 171.799 309.578 171.313C309.263 172.521 308.777 173.651 308.304 174.78C307.805 175.883 307.279 176.973 306.754 178.103Z" fill="#263238"/>
<path d="M264.536 245.674C270.42 254.079 286.419 255.681 326.351 263.509C331.88 264.586 350.007 227.655 344.162 226.197C336.806 224.358 307.856 218.816 305.689 218.685C287.404 217.529 260.543 239.974 264.536 245.674Z" fill="#C95F50"/>
<path d="M336.176 224.371C336.176 224.371 353.094 226.932 361.567 231.016C372.916 236.493 380.442 245.896 383.371 250.033C389.466 258.662 398.241 283.72 391.463 287.503C385.329 290.93 377.644 264.861 377.644 264.861C377.644 264.861 389.86 290.155 381.716 292.927C373.572 295.698 366.374 264.926 366.374 264.926C366.374 264.926 378.341 291.193 369.487 292.716C362.801 293.872 354.71 266.371 354.71 266.371C354.71 266.371 364.837 289.013 358.007 290.497C350.454 292.139 341.404 267.212 341.404 267.212C323.409 268.065 314.49 261.105 308.736 255.405C307.357 254.026 336.176 224.371 336.176 224.371Z" fill="#C95F50"/>
<path d="M373.98 255.851C375.517 258.767 377.106 261.709 378.38 264.756C379.654 267.802 380.837 270.889 381.822 274.041C384.252 281.776 384.554 286.99 384.501 286.662C383.214 279.084 378.814 268.118 377.54 265.071C376.266 262.037 375.136 258.924 373.875 255.891C373.835 255.825 373.941 255.785 373.98 255.851Z" fill="#263238"/>
<path d="M362.894 260.264C364.707 264.072 366.638 267.789 368.28 271.69C369.909 275.564 371.117 279.386 372.483 283.365C372.588 283.667 372.391 283.628 372.273 283.326C370.749 279.412 369.042 275.905 367.479 272.005C365.916 268.117 364.497 264.138 362.803 260.316C362.776 260.237 362.868 260.211 362.894 260.264Z" fill="#263238"/>
<path d="M352.7 262.339C355.76 268.026 357.77 274.264 359.596 280.437C359.688 280.739 359.438 280.66 359.32 280.345C357.14 274.29 355.471 269.523 352.503 262.444C352.463 262.339 352.634 262.221 352.7 262.339Z" fill="#263238"/>
<path d="M339.71 224.373L304.718 263.326C304.718 263.326 269.344 255.21 264.13 246.135C260.701 240.159 287.327 215.981 307.437 218.791L339.71 224.373Z" fill="#71357C"/>
<path d="M290.072 226.394C290.072 226.893 289.678 227.287 289.179 227.287C288.68 227.287 288.286 226.893 288.286 226.394C288.286 225.894 288.68 225.5 289.179 225.5C289.678 225.5 290.072 225.894 290.072 226.394ZM303.589 225.5C303.089 225.5 302.695 225.894 302.695 226.394C302.695 226.893 303.089 227.287 303.589 227.287C304.088 227.287 304.482 226.893 304.482 226.394C304.482 225.894 304.075 225.5 303.589 225.5ZM317.985 225.5C317.486 225.5 317.092 225.894 317.092 226.394C317.092 226.893 317.486 227.287 317.985 227.287C318.484 227.287 318.878 226.893 318.878 226.394C318.878 225.894 318.471 225.5 317.985 225.5ZM332.381 225.5C331.882 225.5 331.488 225.894 331.488 226.394C331.488 226.893 331.882 227.287 332.381 227.287C332.88 227.287 333.274 226.893 333.274 226.394C333.274 225.894 332.88 225.5 332.381 225.5ZM274.783 244.754C274.284 244.754 273.89 245.148 273.89 245.647C273.89 246.146 274.284 246.54 274.783 246.54C275.282 246.54 275.676 246.146 275.676 245.647C275.676 245.161 275.269 244.754 274.783 244.754ZM289.179 244.754C288.68 244.754 288.286 245.148 288.286 245.647C288.286 246.146 288.68 246.54 289.179 246.54C289.678 246.54 290.072 246.146 290.072 245.647C290.072 245.161 289.678 244.754 289.179 244.754ZM303.589 244.754C303.089 244.754 302.695 245.148 302.695 245.647C302.695 246.146 303.089 246.54 303.589 246.54C304.088 246.54 304.482 246.146 304.482 245.647C304.482 245.161 304.075 244.754 303.589 244.754ZM317.985 244.754C317.486 244.754 317.092 245.148 317.092 245.647C317.092 246.146 317.486 246.54 317.985 246.54C318.484 246.54 318.878 246.146 318.878 245.647C318.878 245.161 318.471 244.754 317.985 244.754ZM281.981 235.534C281.482 235.534 281.088 235.928 281.088 236.427C281.088 236.926 281.482 237.32 281.981 237.32C282.48 237.32 282.874 236.926 282.874 236.427C282.874 235.928 282.48 235.534 281.981 235.534ZM296.377 235.534C295.878 235.534 295.484 235.928 295.484 236.427C295.484 236.926 295.878 237.32 296.377 237.32C296.876 237.32 297.27 236.926 297.27 236.427C297.27 235.928 296.876 235.534 296.377 235.534ZM310.787 235.534C310.288 235.534 309.894 235.928 309.894 236.427C309.894 236.926 310.288 237.32 310.787 237.32C311.286 237.32 311.68 236.926 311.68 236.427C311.68 235.928 311.273 235.534 310.787 235.534ZM325.183 235.534C324.684 235.534 324.29 235.928 324.29 236.427C324.29 236.926 324.684 237.32 325.183 237.32C325.682 237.32 326.076 236.926 326.076 236.427C326.076 235.928 325.682 235.534 325.183 235.534ZM281.981 254.788C281.482 254.788 281.088 255.182 281.088 255.681C281.088 256.18 281.482 256.574 281.981 256.574C282.48 256.574 282.874 256.18 282.874 255.681C282.874 255.182 282.48 254.788 281.981 254.788ZM296.377 254.788C295.878 254.788 295.484 255.182 295.484 255.681C295.484 256.18 295.878 256.574 296.377 256.574C296.876 256.574 297.27 256.18 297.27 255.681C297.27 255.182 296.876 254.788 296.377 254.788ZM310.787 254.788C310.288 254.788 309.894 255.195 309.894 255.681C309.894 256.18 310.288 256.574 310.787 256.574L311.667 255.589V255.576C311.627 255.142 311.233 254.788 310.787 254.788Z" fill="white"/>
<path d="M283.452 225.133C286.696 222.782 295.825 217.306 307.463 218.764C307.568 218.777 307.568 218.948 307.463 218.934C298.689 218.685 286.84 223.281 283.517 225.265C283.438 225.33 283.373 225.199 283.452 225.133Z" fill="#263238"/>
<path d="M295.156 256.811C298.768 252.319 302.63 248.025 306.491 243.756C310.353 239.475 314.215 235.18 318.195 230.991C320.441 228.627 322.674 226.25 324.999 223.951C325.065 223.886 325.17 223.978 325.117 224.043C321.505 228.522 317.669 232.843 313.834 237.137C309.998 241.445 306.11 245.713 302.183 249.955C299.963 252.346 297.704 254.696 295.379 256.982C295.261 257.1 295.05 256.942 295.156 256.811Z" fill="#263238"/>
<path d="M339.774 223.873C337.633 223.164 335.427 222.796 333.22 222.376C331.013 221.955 328.793 221.588 326.587 221.233C322.173 220.524 312.913 218.527 304.769 218.541C304.677 218.541 305.137 218.974 305.229 218.974C309.104 218.764 336.898 224.293 339.183 224.451C339.091 224.595 339.013 224.753 338.934 224.91C338.881 225.028 339 225.173 339.118 225.081C339.407 224.884 339.604 224.648 339.88 224.437C340.077 224.28 340.05 223.965 339.774 223.873Z" fill="#263238"/>
<path d="M368.163 150.247C401.592 179.403 427.889 215.428 426.182 224.437C423.003 241.209 400.922 242.246 397.573 238.621C384.03 223.951 369.752 195.544 354.279 163.853C340.447 135.525 357.155 140.647 368.163 150.247Z" fill="#71357C"/>
<path d="M362.081 149.341C362.081 149.84 361.687 150.234 361.188 150.234C360.689 150.234 360.295 149.84 360.295 149.341C360.295 148.842 360.689 148.448 361.188 148.448C361.674 148.448 362.081 148.855 362.081 149.341ZM361.188 167.714C360.689 167.714 360.295 168.108 360.295 168.607C360.295 169.106 360.689 169.5 361.188 169.5C361.687 169.5 362.081 169.106 362.081 168.607C362.081 168.108 361.674 167.714 361.188 167.714ZM375.584 167.714C375.085 167.714 374.691 168.108 374.691 168.607C374.691 169.106 375.085 169.5 375.584 169.5C376.084 169.5 376.478 169.106 376.478 168.607C376.478 168.108 376.084 167.714 375.584 167.714ZM353.99 158.482C353.491 158.482 353.097 158.876 353.097 159.375C353.097 159.874 353.491 160.268 353.99 160.268C354.489 160.268 354.883 159.874 354.883 159.375C354.883 158.876 354.476 158.482 353.99 158.482ZM368.386 158.482C367.887 158.482 367.493 158.876 367.493 159.375C367.493 159.874 367.887 160.268 368.386 160.268C368.885 160.268 369.279 159.874 369.279 159.375C369.279 158.876 368.885 158.482 368.386 158.482ZM375.584 186.968C375.085 186.968 374.691 187.362 374.691 187.861C374.691 188.36 375.085 188.754 375.584 188.754C376.084 188.754 376.478 188.36 376.478 187.861C376.478 187.362 376.084 186.968 375.584 186.968ZM389.981 186.968C389.482 186.968 389.088 187.362 389.088 187.861C389.088 188.36 389.482 188.754 389.981 188.754C390.48 188.754 390.874 188.36 390.874 187.861C390.874 187.362 390.48 186.968 389.981 186.968ZM404.075 187.02C403.733 187.152 403.497 187.48 403.497 187.861C403.497 188.36 403.891 188.754 404.39 188.754C404.705 188.754 404.994 188.583 405.152 188.321C404.784 187.887 404.43 187.454 404.075 187.02ZM368.386 177.748C367.887 177.748 367.493 178.142 367.493 178.641C367.493 179.14 367.887 179.534 368.386 179.534C368.885 179.534 369.279 179.14 369.279 178.641C369.279 178.142 368.885 177.748 368.386 177.748ZM382.783 177.748C382.283 177.748 381.889 178.142 381.889 178.641C381.889 179.14 382.283 179.534 382.783 179.534C383.282 179.534 383.676 179.14 383.676 178.641C383.676 178.142 383.282 177.748 382.783 177.748ZM396.43 178.168C396.351 178.3 396.299 178.471 396.299 178.641C396.299 179.14 396.693 179.534 397.192 179.534C397.323 179.534 397.455 179.508 397.56 179.456C397.192 179.022 396.811 178.602 396.43 178.168ZM375.926 206.3C376.11 206.628 376.281 206.957 376.464 207.272C376.478 207.219 376.478 207.18 376.478 207.127C376.478 206.747 376.254 206.431 375.926 206.3ZM389.981 206.234C389.482 206.234 389.088 206.628 389.088 207.127C389.088 207.626 389.482 208.02 389.981 208.02C390.48 208.02 390.874 207.626 390.874 207.127C390.874 206.628 390.48 206.234 389.981 206.234ZM404.39 206.234C403.891 206.234 403.497 206.628 403.497 207.127C403.497 207.626 403.891 208.02 404.39 208.02C404.889 208.02 405.283 207.626 405.283 207.127C405.283 206.628 404.876 206.234 404.39 206.234ZM418.445 206.3C418.117 206.431 417.893 206.747 417.893 207.127C417.893 207.626 418.287 208.02 418.786 208.02C419.023 208.02 419.233 207.929 419.391 207.784C419.089 207.298 418.773 206.799 418.445 206.3ZM382.783 197.015C382.283 197.015 381.889 197.409 381.889 197.908C381.889 198.407 382.283 198.801 382.783 198.801C383.282 198.801 383.676 198.407 383.676 197.908C383.676 197.409 383.282 197.015 382.783 197.015ZM397.192 197.015C396.693 197.015 396.299 197.409 396.299 197.908C396.299 198.407 396.693 198.801 397.192 198.801C397.691 198.801 398.085 198.407 398.085 197.908C398.085 197.409 397.678 197.015 397.192 197.015ZM412.468 197.724C412.455 197.711 412.455 197.711 412.468 197.698L412.455 197.685C412.311 197.488 412.179 197.317 412.035 197.133C411.904 197.054 411.746 197.015 411.588 197.015C411.089 197.015 410.695 197.409 410.695 197.908C410.695 198.394 411.089 198.801 411.588 198.801C412.074 198.801 412.482 198.394 412.482 197.908C412.482 197.842 412.482 197.79 412.468 197.724ZM389.981 225.501C389.482 225.501 389.088 225.895 389.088 226.394C389.088 226.893 389.482 227.287 389.981 227.287C390.48 227.287 390.874 226.893 390.874 226.394C390.874 225.895 390.48 225.501 389.981 225.501ZM404.39 225.501C403.891 225.501 403.497 225.895 403.497 226.394C403.497 226.893 403.891 227.287 404.39 227.287C404.889 227.287 405.283 226.893 405.283 226.394C405.283 225.895 404.876 225.501 404.39 225.501ZM418.786 225.501C418.287 225.501 417.893 225.895 417.893 226.394C417.893 226.893 418.287 227.287 418.786 227.287C419.286 227.287 419.68 226.893 419.68 226.394C419.68 225.895 419.286 225.501 418.786 225.501ZM382.783 216.268C382.283 216.268 381.889 216.662 381.889 217.161C381.889 217.66 382.283 218.054 382.783 218.054C383.282 218.054 383.676 217.66 383.676 217.161C383.676 216.675 383.282 216.268 382.783 216.268ZM397.192 216.268C396.693 216.268 396.299 216.662 396.299 217.161C396.299 217.66 396.693 218.054 397.192 218.054C397.691 218.054 398.085 217.66 398.085 217.161C398.085 216.675 397.678 216.268 397.192 216.268ZM411.588 216.268C411.089 216.268 410.695 216.662 410.695 217.161C410.695 217.66 411.089 218.054 411.588 218.054C412.087 218.054 412.482 217.66 412.482 217.161C412.482 216.675 412.074 216.268 411.588 216.268ZM397.192 235.535C396.693 235.535 396.299 235.929 396.299 236.428C396.299 236.927 396.693 237.321 397.192 237.321C397.691 237.321 398.085 236.927 398.085 236.428C398.085 235.929 397.678 235.535 397.192 235.535ZM411.588 235.535C411.089 235.535 410.695 235.929 410.695 236.428C410.695 236.927 411.089 237.321 411.588 237.321C412.087 237.321 412.482 236.927 412.482 236.428C412.482 235.929 412.074 235.535 411.588 235.535Z" fill="white"/>
<path d="M392.057 232.081C389.6 228.273 387.302 224.359 384.964 220.485C382.626 216.61 380.301 212.71 378.028 208.796C373.523 201.047 369.346 193.128 365.313 185.13C363.028 180.599 360.716 176.094 358.549 171.51C358.483 171.366 358.233 171.471 358.299 171.629C360.401 176.948 362.647 182.188 365.077 187.362C365.037 187.31 364.985 187.244 364.945 187.192C364.407 186.456 363.855 185.734 363.33 184.998C362.279 183.541 361.307 182.043 360.361 180.52C360.282 180.389 360.099 180.507 360.164 180.638C361.254 182.7 362.463 184.723 363.829 186.614C364.486 187.52 365.156 188.439 365.917 189.254C365.931 189.28 365.97 189.293 365.983 189.319C367.086 191.618 368.216 193.903 369.411 196.175C373.615 204.186 378.055 212.119 383.046 219.684C384.451 221.811 385.857 223.939 387.328 226.027C388.799 228.115 390.375 230.138 391.886 232.2C391.965 232.291 392.136 232.186 392.057 232.081Z" fill="#263238"/>
<path d="M403.115 235.377C396.784 226.289 399.989 208.205 406.951 164.838C407.91 158.836 453.476 158.364 452.78 164.825C451.9 172.968 443.795 205.118 441.681 209.859C431.317 233 407.411 241.55 403.115 235.377Z" fill="#C95F50"/>
<path d="M454.25 146.833C452.49 133.043 449.915 129.76 454.618 117.336C457.704 109.18 453.816 103.704 447.025 109.732C435.926 119.582 434.455 137.85 435.768 144.338L454.25 146.833Z" fill="#C95F50"/>
<g filter="url(#filter3_d)">
<rect x="372.576" y="97.4077" width="35.2386" height="58.731" rx="1.56616" transform="rotate(-25.0659 372.576 97.4077)" fill="#F0ECE8"/>
<mask id="mask3" mask-type="alpha" maskUnits="userSpaceOnUse" x="375" y="85" width="52" height="63">
<rect x="375.179" y="98.3521" width="31.3232" height="54.8156" rx="1.56616" transform="rotate(-25.0659 375.179 98.3521)" fill="white"/>
</mask>
<g mask="url(#mask3)">
<rect x="375.179" y="98.3521" width="31.3232" height="54.8156" rx="1.56616" transform="rotate(-25.0659 375.179 98.3521)" fill="url(#paint4_radial)"/>
<path d="M395.669 114.32C395.488 113.933 395.655 113.473 396.042 113.292L397.925 112.411C398.312 112.23 398.773 112.397 398.954 112.784L400.347 115.762C400.528 116.149 400.361 116.61 399.974 116.791L398.091 117.671C397.704 117.852 397.243 117.685 397.062 117.298L395.669 114.32Z" fill="white"/>
<path d="M403.255 111.252C403.642 111.071 404.103 111.238 404.284 111.625L405.165 113.509C405.346 113.896 405.179 114.356 404.792 114.537L401.813 115.93C401.426 116.111 400.966 115.944 400.785 115.557L399.904 113.674C399.723 113.287 399.89 112.826 400.277 112.645L403.255 111.252Z" fill="white"/>
<path d="M400.179 117.229C400.566 117.048 401.026 117.215 401.207 117.602L402.088 119.485C402.269 119.872 402.102 120.332 401.715 120.513L398.737 121.906C398.35 122.087 397.889 121.92 397.708 121.533L396.827 119.65C396.646 119.263 396.813 118.803 397.2 118.622L400.179 117.229Z" fill="white"/>
<path d="M406.323 118.839C406.504 119.226 406.337 119.686 405.95 119.867L404.067 120.748C403.68 120.929 403.219 120.762 403.038 120.375L401.645 117.397C401.464 117.01 401.631 116.549 402.018 116.368L403.902 115.487C404.289 115.306 404.749 115.473 404.93 115.86L406.323 118.839Z" fill="white"/>
<path d="M406.924 111.565C407.151 112.049 406.942 112.624 406.458 112.85C405.974 113.077 405.399 112.868 405.172 112.384C404.946 111.9 405.155 111.325 405.639 111.098C406.122 110.872 406.698 111.081 406.924 111.565Z" fill="white"/>
<path d="M397.267 111.117C397.493 111.601 397.285 112.177 396.801 112.403C396.317 112.629 395.741 112.42 395.515 111.937C395.289 111.453 395.498 110.877 395.981 110.651C396.465 110.425 397.041 110.634 397.267 111.117Z" fill="white"/>
<path d="M406.521 121.202C406.747 121.685 406.538 122.261 406.054 122.487C405.571 122.713 404.995 122.505 404.769 122.021C404.543 121.537 404.751 120.962 405.235 120.735C405.719 120.509 406.294 120.718 406.521 121.202Z" fill="white"/>
<path d="M396.84 120.818C397.066 121.302 396.858 121.878 396.374 122.104C395.89 122.33 395.314 122.122 395.088 121.638C394.862 121.154 395.071 120.578 395.554 120.352C396.038 120.126 396.614 120.335 396.84 120.818Z" fill="white"/>
</g>
</g>
<g filter="url(#filter4_d)">
<rect x="393.423" y="84.4907" width="35.2386" height="58.731" rx="1.56616" transform="rotate(-10.0659 393.423 84.4907)" fill="#F0ECE8"/>
<mask id="mask4" mask-type="alpha" maskUnits="userSpaceOnUse" x="395" y="80" width="41" height="60">
<rect x="395.693" y="86.0757" width="31.3232" height="54.8156" rx="1.56616" transform="rotate(-10.0659 395.693 86.0757)" fill="white"/>
</mask>
<g mask="url(#mask4)">
<rect x="395.693" y="86.0757" width="31.3232" height="54.8156" rx="1.56616" transform="rotate(-10.0659 395.693 86.0757)" fill="url(#paint5_radial)"/>
<path d="M411.353 106.803C411.278 106.382 411.559 105.98 411.979 105.906L414.027 105.542C414.447 105.468 414.849 105.748 414.923 106.169L415.498 109.406C415.573 109.827 415.292 110.228 414.872 110.303L412.825 110.667C412.404 110.741 412.002 110.461 411.928 110.04L411.353 106.803Z" fill="white"/>
<path d="M419.475 105.803C419.895 105.728 420.297 106.009 420.372 106.429L420.735 108.477C420.81 108.897 420.529 109.299 420.108 109.374L416.871 109.948C416.45 110.023 416.049 109.742 415.974 109.322L415.611 107.275C415.536 106.854 415.817 106.452 416.237 106.378L419.475 105.803Z" fill="white"/>
<path d="M414.956 110.779C415.377 110.705 415.778 110.985 415.853 111.406L416.216 113.453C416.291 113.874 416.011 114.275 415.59 114.35L412.353 114.924C411.932 114.999 411.53 114.719 411.456 114.298L411.092 112.251C411.018 111.83 411.298 111.429 411.719 111.354L414.956 110.779Z" fill="white"/>
<path d="M420.474 113.925C420.549 114.345 420.269 114.747 419.848 114.822L417.801 115.185C417.38 115.26 416.979 114.979 416.904 114.558L416.329 111.321C416.254 110.901 416.535 110.499 416.956 110.424L419.003 110.061C419.423 109.986 419.825 110.267 419.9 110.687L420.474 113.925Z" fill="white"/>
<path d="M422.938 107.054C423.031 107.58 422.681 108.082 422.155 108.175C421.629 108.269 421.127 107.918 421.034 107.392C420.94 106.866 421.291 106.365 421.817 106.271C422.343 106.178 422.845 106.528 422.938 107.054Z" fill="white"/>
<path d="M413.725 104.123C413.819 104.648 413.468 105.15 412.942 105.244C412.416 105.337 411.914 104.987 411.821 104.461C411.728 103.935 412.078 103.433 412.604 103.339C413.13 103.246 413.632 103.597 413.725 104.123Z" fill="white"/>
<path d="M420.054 116.258C420.147 116.784 419.797 117.286 419.271 117.379C418.745 117.473 418.243 117.122 418.149 116.596C418.056 116.07 418.407 115.569 418.933 115.475C419.458 115.382 419.96 115.732 420.054 116.258Z" fill="white"/>
<path d="M410.802 113.383C410.896 113.909 410.545 114.41 410.019 114.504C409.493 114.597 408.991 114.247 408.898 113.721C408.805 113.195 409.155 112.693 409.681 112.6C410.207 112.506 410.709 112.857 410.802 113.383Z" fill="white"/>
</g>
</g>
<g filter="url(#filter5_d)">
<rect x="417.083" y="80.2446" width="35.2386" height="58.731" rx="1.56616" transform="rotate(4.93412 417.083 80.2446)" fill="#F0ECE8"/>
<mask id="mask5" mask-type="alpha" maskUnits="userSpaceOnUse" x="414" y="82" width="36" height="58">
<rect x="418.865" y="82.3633" width="31.3232" height="54.8156" rx="1.56616" transform="rotate(4.93412 418.865 82.3633)" fill="white"/>
</mask>
<g mask="url(#mask5)">
<rect x="418.865" y="82.3633" width="31.3232" height="54.8156" rx="1.56616" transform="rotate(4.93412 418.865 82.3633)" fill="url(#paint6_radial)"/>
<path d="M428.627 106.437C428.663 106.011 429.038 105.696 429.464 105.733L431.535 105.912C431.961 105.948 432.276 106.323 432.239 106.749L431.957 110.025C431.92 110.45 431.545 110.766 431.119 110.729L429.048 110.55C428.622 110.513 428.307 110.139 428.344 109.713L428.627 106.437Z" fill="white"/>
<path d="M436.73 107.573C437.156 107.61 437.471 107.985 437.434 108.411L437.256 110.482C437.219 110.908 436.844 111.223 436.418 111.186L433.143 110.904C432.717 110.867 432.402 110.492 432.438 110.066L432.617 107.995C432.654 107.569 433.029 107.254 433.455 107.291L436.73 107.573Z" fill="white"/>
<path d="M431.078 111.211C431.503 111.247 431.819 111.622 431.782 112.048L431.603 114.119C431.566 114.545 431.192 114.86 430.766 114.824L427.49 114.541C427.064 114.504 426.749 114.129 426.786 113.704L426.965 111.632C427.002 111.206 427.376 110.891 427.802 110.928L431.078 111.211Z" fill="white"/>
<path d="M435.594 115.677C435.557 116.103 435.182 116.418 434.757 116.381L432.685 116.203C432.259 116.166 431.944 115.791 431.981 115.365L432.264 112.09C432.3 111.664 432.675 111.349 433.101 111.385L435.172 111.564C435.598 111.601 435.913 111.976 435.877 112.401L435.594 115.677Z" fill="white"/>
<path d="M439.752 109.679C439.706 110.211 439.237 110.605 438.705 110.559C438.173 110.513 437.779 110.044 437.825 109.512C437.871 108.98 438.339 108.586 438.871 108.632C439.403 108.678 439.798 109.146 439.752 109.679Z" fill="white"/>
<path d="M431.612 104.462C431.566 104.994 431.097 105.389 430.565 105.343C430.033 105.297 429.639 104.828 429.685 104.296C429.731 103.764 430.199 103.37 430.732 103.416C431.264 103.462 431.658 103.93 431.612 104.462Z" fill="white"/>
<path d="M434.584 117.822C434.538 118.355 434.069 118.749 433.537 118.703C433.005 118.657 432.611 118.188 432.657 117.656C432.703 117.124 433.171 116.73 433.703 116.776C434.235 116.822 434.63 117.29 434.584 117.822Z" fill="white"/>
<path d="M426.392 112.65C426.346 113.182 425.877 113.577 425.345 113.531C424.813 113.485 424.419 113.016 424.465 112.484C424.511 111.952 424.979 111.558 425.511 111.604C426.043 111.65 426.437 112.118 426.392 112.65Z" fill="white"/>
</g>
</g>
<path d="M447.105 185.812C447.105 185.812 455.354 167.898 454.934 153.005C454.645 142.709 451.519 120.382 424.605 105.515C418.221 101.982 406.622 101.483 414.963 111.031C420.887 117.808 426.68 120.329 429.412 124.9C429.412 124.9 414.582 126.016 411.299 132.543C409.827 135.459 406.005 143.523 403.93 150.221C403.93 150.221 405.269 151.061 407.122 151.889C407.122 151.889 404.626 158.285 408.304 168.043L447.105 185.812Z" fill="#C95F50"/>
<path d="M453.094 143.235C449.43 139.269 441.522 130.995 432.708 126.477C422.909 121.46 402.681 114.434 399.056 121.697C396.389 127.029 403.876 130.391 403.876 130.391C403.876 130.391 394.905 129.248 393.552 134.594C392.317 139.466 398.268 141.712 398.268 141.712C398.268 141.712 392.711 141.948 392.422 146.873C392.081 152.783 403.798 151.312 408.631 157.603C409.695 159.008 453.094 143.235 453.094 143.235Z" fill="#C95F50"/>
<path d="M429.123 137.705C425.064 134.54 414.004 129.72 404.06 130.258C403.837 130.271 403.719 130.442 403.929 130.482C415.015 132.215 424.959 135.958 429.07 137.797C429.123 137.823 429.162 137.744 429.123 137.705Z" fill="#263238"/>
<path d="M423.764 147.449C419.981 145.085 408.369 140.62 398.295 141.513C398.071 141.539 397.966 141.723 398.176 141.736C409.827 143.076 419.495 145.952 423.711 147.541C423.777 147.567 423.816 147.475 423.764 147.449Z" fill="#263238"/>
<path d="M453.503 179.521L400.673 194.507C400.673 194.507 390.139 229.126 396.838 237.82C403.996 247.105 437.255 232.711 443.875 212.486L453.503 179.521Z" fill="#71357C"/>
<path d="M434.076 187.861C434.076 188.36 433.682 188.754 433.183 188.754C432.684 188.754 432.29 188.36 432.29 187.861C432.29 187.362 432.684 186.968 433.183 186.968C433.682 186.968 434.076 187.375 434.076 187.861ZM447.592 186.968C447.093 186.968 446.699 187.362 446.699 187.861C446.699 188.36 447.093 188.754 447.592 188.754C448.091 188.754 448.486 188.36 448.486 187.861C448.486 187.362 448.078 186.968 447.592 186.968ZM404.39 206.234C403.891 206.234 403.497 206.628 403.497 207.127C403.497 207.626 403.891 208.021 404.39 208.021C404.889 208.021 405.283 207.626 405.283 207.127C405.283 206.628 404.876 206.234 404.39 206.234ZM418.787 206.234C418.287 206.234 417.893 206.628 417.893 207.127C417.893 207.626 418.287 208.021 418.787 208.021C419.286 208.021 419.68 207.626 419.68 207.127C419.68 206.628 419.286 206.234 418.787 206.234ZM433.183 206.234C432.684 206.234 432.29 206.628 432.29 207.127C432.29 207.626 432.684 208.021 433.183 208.021C433.682 208.021 434.076 207.626 434.076 207.127C434.076 206.628 433.682 206.234 433.183 206.234ZM411.588 197.015C411.089 197.015 410.695 197.409 410.695 197.908C410.695 198.407 411.089 198.801 411.588 198.801C412.087 198.801 412.482 198.407 412.482 197.908C412.482 197.409 412.074 197.015 411.588 197.015ZM425.985 197.015C425.486 197.015 425.091 197.409 425.091 197.908C425.091 198.407 425.486 198.801 425.985 198.801C426.484 198.801 426.878 198.407 426.878 197.908C426.878 197.409 426.484 197.015 425.985 197.015ZM440.381 197.015C439.882 197.015 439.488 197.409 439.488 197.908C439.488 198.407 439.882 198.801 440.381 198.801C440.88 198.801 441.274 198.407 441.274 197.908C441.274 197.409 440.88 197.015 440.381 197.015ZM404.39 225.501C403.891 225.501 403.497 225.895 403.497 226.394C403.497 226.893 403.891 227.287 404.39 227.287C404.889 227.287 405.283 226.893 405.283 226.394C405.283 225.895 404.876 225.501 404.39 225.501ZM418.787 225.501C418.287 225.501 417.893 225.895 417.893 226.394C417.893 226.893 418.287 227.287 418.787 227.287C419.286 227.287 419.68 226.893 419.68 226.394C419.68 225.895 419.286 225.501 418.787 225.501ZM433.183 225.501C432.684 225.501 432.29 225.895 432.29 226.394C432.29 226.893 432.684 227.287 433.183 227.287C433.682 227.287 434.076 226.893 434.076 226.394C434.076 225.895 433.682 225.501 433.183 225.501ZM397.192 216.268C396.693 216.268 396.299 216.662 396.299 217.161C396.299 217.66 396.693 218.054 397.192 218.054C397.691 218.054 398.085 217.66 398.085 217.161C398.085 216.675 397.678 216.268 397.192 216.268ZM411.588 216.268C411.089 216.268 410.695 216.662 410.695 217.161C410.695 217.66 411.089 218.054 411.588 218.054C412.087 218.054 412.482 217.66 412.482 217.161C412.482 216.675 412.074 216.268 411.588 216.268ZM425.985 216.268C425.486 216.268 425.091 216.662 425.091 217.161C425.091 217.66 425.486 218.054 425.985 218.054C426.484 218.054 426.878 217.66 426.878 217.161C426.878 216.675 426.484 216.268 425.985 216.268ZM440.381 216.268C439.882 216.268 439.488 216.662 439.488 217.161C439.488 217.66 439.882 218.054 440.381 218.054C440.88 218.054 441.274 217.66 441.274 217.161C441.287 216.675 440.88 216.268 440.381 216.268ZM397.192 235.535C396.693 235.535 396.299 235.929 396.299 236.428C396.299 236.927 396.693 237.321 397.192 237.321C397.691 237.321 398.085 236.927 398.085 236.428C398.085 235.929 397.678 235.535 397.192 235.535ZM411.588 235.535C411.089 235.535 410.695 235.929 410.695 236.428C410.695 236.927 411.089 237.321 411.588 237.321C412.087 237.321 412.482 236.927 412.482 236.428C412.482 235.929 412.074 235.535 411.588 235.535Z" fill="white"/>
<path d="M402.406 206.524C408.304 205.184 414.123 203.542 419.941 201.874C425.76 200.206 431.579 198.552 437.359 196.739C440.616 195.715 443.9 194.717 447.118 193.574C447.197 193.548 447.171 193.39 447.079 193.417C441.194 194.743 435.362 196.372 429.543 198C423.711 199.629 417.892 201.323 412.1 203.07C408.829 204.055 405.558 205.105 402.34 206.235C402.169 206.287 402.222 206.563 402.406 206.524Z" fill="#263238"/>
<path d="M402.551 193.943C401.723 194.035 400.909 194.205 400.094 194.35C399.963 194.376 399.871 194.507 399.845 194.612C398.938 197.686 398.295 200.851 397.664 203.99C397.034 207.089 396.482 210.189 395.957 213.301C395.681 214.982 395.431 216.663 395.247 218.344C394.249 220.406 393.592 222.573 393.422 224.872C393.408 224.99 393.605 225.003 393.619 224.898C393.868 222.902 394.38 220.892 395.182 219.027C394.748 223.151 394.696 227.275 395.51 231.386C395.51 231.412 395.549 231.399 395.549 231.373C394.512 225.279 396.049 218.909 397.047 212.907C397.546 209.9 398.111 206.905 398.702 203.911C399.293 200.93 399.989 197.961 400.528 194.967C401.224 194.704 401.933 194.442 402.603 194.127C402.708 194.087 402.656 193.93 402.551 193.943Z" fill="#263238"/>
<path d="M348.657 140.278C348.381 142.025 341.012 153.753 333.144 153.95C330.583 154.016 329.611 140.055 329.611 140.055L329.308 139.044L325.026 124.847L341.196 112.725L343.547 111.109C343.547 111.109 344.467 115.076 345.557 120.014C345.609 120.237 345.662 120.473 345.714 120.723C345.78 120.999 345.846 121.261 345.898 121.524C346.069 122.26 346.24 123.008 346.398 123.77C346.516 124.348 346.634 124.899 346.752 125.503C346.87 126.108 346.975 126.699 347.107 127.303C348.171 133.292 348.762 139.543 348.657 140.278Z" fill="#C95F50"/>
<path d="M345.544 120.001C342.247 131.794 333.407 137.153 329.309 139.044L325.026 124.847L341.196 112.725L343.547 111.109C343.547 111.096 344.454 115.063 345.544 120.001Z" fill="#263238"/>
<path d="M302.066 105.646C304.233 131.597 320.022 133.226 325.618 132.753C330.701 132.32 347.935 130.218 348.46 104.175C348.985 78.1448 336.231 70.9478 324.567 71.3155C312.889 71.6832 299.899 79.6946 302.066 105.646Z" fill="#C95F50"/>
<path d="M305.391 99.631C305.982 99.4734 306.507 99.237 307.085 99.0269C307.729 98.7905 308.267 98.6591 308.688 98.0813C308.911 97.7661 308.819 97.2144 308.53 96.9649C307.873 96.387 307.006 96.479 306.218 96.7417C305.364 97.0175 304.773 97.4509 304.287 98.2126C303.814 98.9349 304.603 99.828 305.391 99.631Z" fill="#263238"/>
<path d="M322.452 94.9691C321.835 94.9954 321.27 94.9166 320.652 94.8772C319.969 94.8378 319.404 94.864 318.84 94.4306C318.538 94.1942 318.472 93.6295 318.669 93.3143C319.142 92.5657 319.996 92.4213 320.823 92.4344C321.729 92.4607 322.412 92.7102 323.096 93.288C323.765 93.8528 323.253 94.9428 322.452 94.9691Z" fill="#263238"/>
<path d="M320.023 104.545C320.023 104.479 320.167 104.61 320.18 104.689C320.351 106.449 320.85 108.445 322.518 108.826C322.571 108.839 322.571 108.931 322.518 108.931C320.535 108.892 319.904 106.239 320.023 104.545Z" fill="#263238"/>
<path d="M321.352 102.495C324.15 101.917 325.109 107.551 322.521 108.09C319.973 108.628 319.014 102.994 321.352 102.495Z" fill="#263238"/>
<path d="M322.505 102.613C323.057 102.85 323.635 103.336 324.239 103.283C324.935 103.231 325.355 102.561 325.71 101.904C325.749 101.839 325.802 101.878 325.815 101.957C326.012 103.034 325.789 104.216 324.659 104.57C323.621 104.899 322.702 104.071 322.255 103.034C322.163 102.837 322.295 102.508 322.505 102.613Z" fill="#263238"/>
<path d="M309.671 105.593C309.645 105.528 309.553 105.698 309.566 105.764C309.908 107.511 310 109.56 308.502 110.387C308.45 110.413 308.476 110.505 308.529 110.479C310.42 109.914 310.276 107.196 309.671 105.593Z" fill="#263238"/>
<path d="M307.82 104.018C304.97 104.254 305.666 109.941 308.306 109.718C310.894 109.494 310.197 103.821 307.82 104.018Z" fill="#263238"/>
<path d="M306.677 104.542C306.27 104.897 305.889 105.501 305.35 105.593C304.733 105.711 304.194 105.146 303.735 104.608C303.682 104.555 303.643 104.608 303.656 104.673C303.761 105.764 304.26 106.854 305.324 106.932C306.296 107.011 306.887 105.987 307.019 104.884C307.032 104.673 306.835 104.398 306.677 104.542Z" fill="#263238"/>
<path d="M321.755 118.294C321.427 118.793 321.138 119.436 320.52 119.633C319.929 119.817 319.167 119.699 318.563 119.607C318.498 119.594 318.458 119.673 318.511 119.712C319.102 120.277 320.139 120.487 320.914 120.172C321.663 119.87 321.913 119.108 321.939 118.346C321.952 118.228 321.808 118.228 321.755 118.294Z" fill="#263238"/>
<path d="M313.428 113.119C313.428 113.119 313.48 115.786 313.677 117.02C313.69 117.138 314.006 117.138 314.426 117.099C314.452 117.099 314.465 117.112 314.478 117.099C316.711 117.099 318.787 115.996 319.825 113.999C319.89 113.868 319.719 113.763 319.614 113.855C318.183 115.313 316.422 115.904 314.505 116.232C314.36 115.904 314.57 111.648 314.373 111.662C313.69 111.714 312.429 112.384 311.668 112.739C311.392 107.17 312.022 101.615 311.668 96.0723C311.654 95.8753 311.365 95.8622 311.339 96.0461C310.275 101.825 310.446 108.234 310.577 113.986C310.577 114.748 312.968 113.408 313.428 113.119Z" fill="#263238"/>
<path d="M314.742 116.574C314.742 116.574 316.108 118.032 317.79 118.426C318.407 118.57 319.064 118.583 319.72 118.334C321.06 117.821 320.955 116.547 320.574 115.484C320.272 114.617 319.773 113.895 319.773 113.895C319.773 113.895 317.96 116.009 314.742 116.574Z" fill="#263238"/>
<path d="M317.791 118.438C318.408 118.583 319.065 118.596 319.722 118.346C321.062 117.834 320.956 116.56 320.576 115.497C319.104 115.812 317.751 116.981 317.791 118.438Z" fill="#FF9CBD"/>
<path d="M347.002 104.267C344.164 104.293 336.244 97.0305 335.062 83.3981C335.062 83.3981 336.979 95.5727 338.03 97.3063C339.081 99.0399 333.604 93.2218 332.487 82.2292C332.487 82.2292 326.694 87.0623 321.598 88.8878C316.501 90.7134 313.309 90.8841 312.915 90.5426C312.521 90.188 319.995 87.2462 321.9 84.7114C321.9 84.7114 308.515 92.1186 302.171 93.0511C301.435 93.1562 299.491 78.0529 308.896 70.9215C318.301 63.7901 334.418 69.6344 338.897 73.4037C338.897 73.4037 343.875 73.7583 349.747 80.6795C355.618 87.5614 350.062 104.228 347.002 104.267Z" fill="#263238"/>
<path d="M343.533 106.106C343.533 106.106 347.763 97.136 351.743 98.5019C355.723 99.8809 353.503 112.213 349.51 114.525C345.517 116.849 343.297 113.185 343.297 113.185L343.533 106.106Z" fill="#C95F50"/>
<path d="M351.02 102.035C351.085 102.022 351.112 102.114 351.059 102.141C348.275 103.861 347.171 106.908 346.567 109.981C347.263 108.72 348.38 107.906 350.035 108.707C350.127 108.747 350.074 108.878 349.982 108.878C348.708 108.825 347.867 109.193 347.197 110.309C346.725 111.111 346.475 112.056 346.199 112.923C346.107 113.212 345.595 113.159 345.647 112.831C345.647 112.805 345.661 112.779 345.661 112.752C344.938 108.97 346.987 103.126 351.02 102.035Z" fill="#263238"/>
<path d="M329.427 140.095L334.628 151.39L348.223 136.103L352.506 140.581C352.506 140.581 339.646 164.431 339.502 163.394L334.261 153.701L327.745 160.951L327.443 143.575L329.427 140.095Z" fill="#71357C"/>
<path d="M327.128 152.362C327.181 149.499 327.141 146.596 327.325 143.733C327.325 143.628 327.483 143.576 327.522 143.694C328.231 146.426 327.995 157.405 328.139 160.019C328.153 160.006 328.166 159.992 328.166 159.992C328.442 159.677 334.221 153.596 334.287 153.688C335.39 155.212 339.239 162.278 339.515 162.921C341.551 159.139 349.379 145.336 351.822 141.737C351.888 141.632 352.046 141.711 351.993 141.829C350.233 145.808 339.882 164.379 339.712 164.326C339.593 164.418 334.825 155.737 334.221 154.069C333.262 155.383 327.456 162.199 327.417 161.779C327.128 158.929 327.089 155.238 327.128 152.362Z" fill="#263238"/>
<path d="M298.52 265.754C298.375 265.793 298.231 265.833 298.086 265.859L298.073 265.846C298.218 265.82 298.375 265.793 298.52 265.754Z" fill="#C95F50"/>
<path d="M256.958 257.599C256.893 257.914 256.84 258.216 256.801 258.531C256.814 258.465 256.814 258.413 256.827 258.347C256.853 258.098 256.906 257.861 256.958 257.599Z" fill="#71357C"/>
<path d="M256.958 257.599C256.893 257.914 256.84 258.216 256.801 258.531C256.814 258.465 256.814 258.413 256.827 258.347C256.853 258.098 256.906 257.861 256.958 257.599Z" fill="#71357C"/>
<path d="M300.489 270.286C300.029 270.404 299.582 270.522 299.136 270.614C299.582 270.496 300.042 270.391 300.489 270.286Z" fill="#71357C"/>
<path d="M256.958 257.599C256.893 257.914 256.84 258.216 256.801 258.531C256.814 258.465 256.814 258.413 256.827 258.347C256.853 258.098 256.906 257.861 256.958 257.599Z" fill="#DBDBDB"/>
</g>
<defs>
<filter id="filter0_d" x="-8.04464" y="87.3645" width="70.3766" height="86.9882" filterUnits="userSpaceOnUse" color-interpolation-filters="sRGB">
<feFlood flood-opacity="0" result="BackgroundImageFix"/>
<feColorMatrix in="SourceAlpha" type="matrix" values="0 0 0 0 0 0 0 0 0 0 0 0 0 0 0 0 0 0 127 0" result="hardAlpha"/>
<feOffset/>
<feGaussianBlur stdDeviation="5.46031"/>
<feColorMatrix type="matrix" values="0 0 0 0 0 0 0 0 0 0 0 0 0 0 0 0 0 0 0.05 0"/>
<feBlend mode="normal" in2="BackgroundImageFix" result="effect1_dropShadow"/>
<feBlend mode="normal" in="SourceGraphic" in2="effect1_dropShadow" result="shape"/>
</filter>
<filter id="filter1_d" x="14.388" y="87.0599" width="57.0798" height="80.5722" filterUnits="userSpaceOnUse" color-interpolation-filters="sRGB">
<feFlood flood-opacity="0" result="BackgroundImageFix"/>
<feColorMatrix in="SourceAlpha" type="matrix" values="0 0 0 0 0 0 0 0 0 0 0 0 0 0 0 0 0 0 127 0" result="hardAlpha"/>
<feOffset/>
<feGaussianBlur stdDeviation="5.46031"/>
<feColorMatrix type="matrix" values="0 0 0 0 0 0 0 0 0 0 0 0 0 0 0 0 0 0 0.05 0"/>
<feBlend mode="normal" in2="BackgroundImageFix" result="effect1_dropShadow"/>
<feBlend mode="normal" in="SourceGraphic" in2="effect1_dropShadow" result="shape"/>
</filter>
<filter id="filter2_d" x="23.5755" y="87.365" width="70.3766" height="86.9882" filterUnits="userSpaceOnUse" color-interpolation-filters="sRGB">
<feFlood flood-opacity="0" result="BackgroundImageFix"/>
<feColorMatrix in="SourceAlpha" type="matrix" values="0 0 0 0 0 0 0 0 0 0 0 0 0 0 0 0 0 0 127 0" result="hardAlpha"/>
<feOffset/>
<feGaussianBlur stdDeviation="5.46031"/>
<feColorMatrix type="matrix" values="0 0 0 0 0 0 0 0 0 0 0 0 0 0 0 0 0 0 0.05 0"/>
<feBlend mode="normal" in2="BackgroundImageFix" result="effect1_dropShadow"/>
<feBlend mode="normal" in="SourceGraphic" in2="effect1_dropShadow" result="shape"/>
</filter>
<filter id="filter3_d" x="362.171" y="72.0735" width="77.6117" height="88.9389" filterUnits="userSpaceOnUse" color-interpolation-filters="sRGB">
<feFlood flood-opacity="0" result="BackgroundImageFix"/>
<feColorMatrix in="SourceAlpha" type="matrix" values="0 0 0 0 0 0 0 0 0 0 0 0 0 0 0 0 0 0 127 0" result="hardAlpha"/>
<feOffset/>
<feGaussianBlur stdDeviation="5.46031"/>
<feColorMatrix type="matrix" values="0 0 0 0 0 0 0 0 0 0 0 0 0 0 0 0 0 0 0.05 0"/>
<feBlend mode="normal" in2="BackgroundImageFix" result="effect1_dropShadow"/>
<feBlend mode="normal" in="SourceGraphic" in2="effect1_dropShadow" result="shape"/>
</filter>
<filter id="filter4_d" x="382.751" y="67.6604" width="66.3037" height="85.3285" filterUnits="userSpaceOnUse" color-interpolation-filters="sRGB">
<feFlood flood-opacity="0" result="BackgroundImageFix"/>
<feColorMatrix in="SourceAlpha" type="matrix" values="0 0 0 0 0 0 0 0 0 0 0 0 0 0 0 0 0 0 127 0" result="hardAlpha"/>
<feOffset/>
<feGaussianBlur stdDeviation="5.46031"/>
<feColorMatrix type="matrix" values="0 0 0 0 0 0 0 0 0 0 0 0 0 0 0 0 0 0 0.05 0"/>
<feBlend mode="normal" in2="BackgroundImageFix" result="effect1_dropShadow"/>
<feBlend mode="normal" in="SourceGraphic" in2="effect1_dropShadow" result="shape"/>
</filter>
<filter id="filter5_d" x="401.24" y="69.4529" width="61.7431" height="83.1278" filterUnits="userSpaceOnUse" color-interpolation-filters="sRGB">
<feFlood flood-opacity="0" result="BackgroundImageFix"/>
<feColorMatrix in="SourceAlpha" type="matrix" values="0 0 0 0 0 0 0 0 0 0 0 0 0 0 0 0 0 0 127 0" result="hardAlpha"/>
<feOffset/>
<feGaussianBlur stdDeviation="5.46031"/>
<feColorMatrix type="matrix" values="0 0 0 0 0 0 0 0 0 0 0 0 0 0 0 0 0 0 0.05 0"/>
<feBlend mode="normal" in2="BackgroundImageFix" result="effect1_dropShadow"/>
<feBlend mode="normal" in="SourceGraphic" in2="effect1_dropShadow" result="shape"/>
</filter>
<linearGradient id="paint0_linear" x1="470" y1="-4.273e-05" x2="-42.5" y2="388" gradientUnits="userSpaceOnUse">
<stop stop-color="white"/>
<stop offset="1" stop-color="white" stop-opacity="0"/>
</linearGradient>
<radialGradient id="paint1_radial" cx="0" cy="0" r="1" gradientUnits="userSpaceOnUse" gradientTransform="translate(20.5835 135.846) rotate(90) scale(44.1177 25.2101)">
<stop stop-color="#DE4116"/>
<stop offset="1" stop-color="#F56139"/>
</radialGradient>
<radialGradient id="paint2_radial" cx="0" cy="0" r="1" gradientUnits="userSpaceOnUse" gradientTransform="translate(42.9272 127.346) rotate(90) scale(44.1177 25.2101)">
<stop stop-color="#DE4116"/>
<stop offset="1" stop-color="#F56139"/>
</radialGradient>
<radialGradient id="paint3_radial" cx="0" cy="0" r="1" gradientUnits="userSpaceOnUse" gradientTransform="translate(66.3911 127.739) rotate(90) scale(44.1177 25.2101)">
<stop stop-color="#DE4116"/>
<stop offset="1" stop-color="#F56139"/>
</radialGradient>
<radialGradient id="paint4_radial" cx="0" cy="0" r="1" gradientUnits="userSpaceOnUse" gradientTransform="translate(390.84 125.76) rotate(90) scale(44.1177 25.2101)">
<stop stop-color="#DE4116"/>
<stop offset="1" stop-color="#F56139"/>
</radialGradient>
<radialGradient id="paint5_radial" cx="0" cy="0" r="1" gradientUnits="userSpaceOnUse" gradientTransform="translate(411.355 113.483) rotate(90) scale(44.1177 25.2101)">
<stop stop-color="#DE4116"/>
<stop offset="1" stop-color="#F56139"/>
</radialGradient>
<radialGradient id="paint6_radial" cx="0" cy="0" r="1" gradientUnits="userSpaceOnUse" gradientTransform="translate(434.527 109.771) rotate(90) scale(44.1177 25.2101)">
<stop stop-color="#DE4116"/>
<stop offset="1" stop-color="#F56139"/>
</radialGradient>
<clipPath id="clip0">
<rect width="470" height="336" rx="32" fill="white"/>
</clipPath>
</defs>
</svg>
