<svg width="25" height="24" viewBox="0 0 25 24" fill="none" xmlns="http://www.w3.org/2000/svg">
<path d="M11.6896 2.25C11.4296 2.25 11.1696 2.31 10.9196 2.4L3.55964 5.45C3.0704 5.65035 2.68075 6.03678 2.47635 6.52433C2.27195 7.01189 2.26954 7.56066 2.46964 8.05L7.42964 20C7.57615 20.3625 7.82567 20.674 8.14736 20.8962C8.46905 21.1183 8.84879 21.2414 9.23964 21.25C9.49964 21.25 9.76964 21.22 10.0296 21.1L17.3996 18.05C17.7554 17.899 18.0603 17.6492 18.2783 17.3302C18.4963 17.0111 18.6183 16.6363 18.6296 16.25C18.6396 16 18.5896 15.71 18.4996 15.45L13.4996 3.5C13.3583 3.13402 13.1101 2.81906 12.7872 2.59612C12.4644 2.37317 12.082 2.25257 11.6896 2.25ZM15.1696 2.25L18.6196 10.6V4.25C18.6196 3.71957 18.4089 3.21086 18.0339 2.83579C17.6588 2.46071 17.1501 2.25 16.6196 2.25H15.1696ZM20.6296 3.79V12.82L23.0596 6.96C23.1593 6.71777 23.2101 6.45825 23.2092 6.19633C23.2083 5.93441 23.1557 5.67524 23.0545 5.43369C22.9532 5.19214 22.8052 4.97295 22.6191 4.78871C22.4329 4.60446 22.2122 4.45877 21.9696 4.36L20.6296 3.79ZM11.6896 4.22L16.6696 16.24L9.27964 19.3L4.29964 7.29" fill="white"/>
</svg>
