<svg width="26" height="25" viewBox="0 0 26 25" fill="none" xmlns="http://www.w3.org/2000/svg">
  <path d="M22.1798 7.54734C20.6182 3.90226 17.0146 1.5 13.0005 1.5C10.7245 1.5 8.59253 2.247 6.83353 3.659C6.61753 3.831 6.30253 3.798 6.13053 3.583C5.95753 3.367 5.99253 3.053 6.20753 2.88C8.14553 1.323 10.4945 0.5 13.0005 0.5C17.4745 0.5 21.4851 3.21332 23.1663 7.31114L24.0673 5.75045C24.2053 5.51146 24.5113 5.42845 24.7503 5.56745C24.9893 5.70545 25.0713 6.01046 24.9333 6.25045L23.4333 8.84845C23.3403 9.00846 23.1723 9.09845 23.0003 9.09845C22.9153 9.09845 22.8293 9.07746 22.7503 9.03146L20.1524 7.53146C19.9134 7.39346 19.8314 7.08846 19.9694 6.84845C20.1074 6.60846 20.4134 6.52645 20.6524 6.66545L22.1798 7.54734Z" fill="#FD7E50"/>
  <path fill-rule="evenodd" clip-rule="evenodd" d="M16.13 15.5H9.348C7.777 15.5 6.5 14.199 6.5 12.6C6.5 11.131 7.578 9.914 8.971 9.726C9.417 7.86 11.082 6.5 13 6.5C14.51 6.5 15.904 7.345 16.627 8.675C18.26 8.916 19.5 10.351 19.5 12.066C19.5 13.96 17.988 15.5 16.13 15.5ZM13 7.5C11.442 7.5 10.103 8.69 9.885 10.269C9.851 10.516 9.639 10.7 9.39 10.7C8.329 10.7 7.5 11.553 7.5 12.599C7.5 13.647 8.329 14.499 9.348 14.499H16.131C17.438 14.499 18.501 13.407 18.501 12.065C18.501 10.777 17.523 9.712 16.275 9.641C16.089 9.63 15.925 9.518 15.848 9.35C15.334 8.227 14.217 7.5 13 7.5Z" fill="#FD7E50"/>
  <path d="M13.7341 21.4733L14.8533 20.3542C15.0483 20.1592 15.0483 19.8422 14.8533 19.6472C14.6583 19.4522 14.3413 19.4522 14.1463 19.6472L12.1463 21.6472C11.9513 21.8422 11.9513 22.1592 12.1463 22.3542L14.1463 24.3542C14.2443 24.4512 14.3723 24.5002 14.5003 24.5002C14.6283 24.5002 14.7563 24.4512 14.8533 24.3532C15.0483 24.1582 15.0483 23.8412 14.8533 23.6462L13.6859 22.4789C19.4327 22.1235 24 17.3347 24 11.5C24 11.224 23.776 11 23.5 11C23.224 11 23 11.224 23 11.5C23 16.7671 18.9067 21.0962 13.7341 21.4733Z" fill="#FD7E50"/>
  <path d="M9.5 21.8898C9.445 21.8898 9.389 21.8808 9.334 21.8618C4.948 20.3238 2 16.1598 2 11.4998C2 9.48168 2.54543 7.53709 3.58221 5.83884L1.62899 6.36213C1.36199 6.42913 1.08799 6.27513 1.01699 6.00813C0.945987 5.74113 1.10399 5.46813 1.37099 5.39613L4.26899 4.62013C4.53499 4.55313 4.80999 4.70713 4.88099 4.97313L5.65699 7.87012C5.72899 8.13812 5.56999 8.41112 5.30399 8.48312C5.25999 8.49412 5.21699 8.50012 5.17399 8.50012C4.95299 8.50012 4.75099 8.35312 4.69099 8.13012L4.28491 6.61438C3.44226 8.09509 3 9.76755 3 11.4998C3 15.7358 5.679 19.5208 9.666 20.9178C9.926 21.0088 10.063 21.2938 9.972 21.5548C9.9 21.7608 9.707 21.8898 9.5 21.8898Z" fill="#FD7E50"/>
  <path d="M22.1798 7.54734C20.6182 3.90226 17.0146 1.5 13.0005 1.5C10.7245 1.5 8.59253 2.247 6.83353 3.659C6.61753 3.831 6.30253 3.798 6.13053 3.583C5.95753 3.367 5.99253 3.053 6.20753 2.88C8.14553 1.323 10.4945 0.5 13.0005 0.5C17.4745 0.5 21.4851 3.21332 23.1663 7.31114L24.0673 5.75045C24.2053 5.51146 24.5113 5.42845 24.7503 5.56745C24.9893 5.70545 25.0713 6.01046 24.9333 6.25045L23.4333 8.84845C23.3403 9.00846 23.1723 9.09845 23.0003 9.09845C22.9153 9.09845 22.8293 9.07746 22.7503 9.03146L20.1524 7.53146C19.9134 7.39346 19.8314 7.08846 19.9694 6.84845C20.1074 6.60846 20.4134 6.52645 20.6524 6.66545L22.1798 7.54734Z" stroke="#FD7E50"/>
  <path fill-rule="evenodd" clip-rule="evenodd" d="M16.13 15.5H9.348C7.777 15.5 6.5 14.199 6.5 12.6C6.5 11.131 7.578 9.914 8.971 9.726C9.417 7.86 11.082 6.5 13 6.5C14.51 6.5 15.904 7.345 16.627 8.675C18.26 8.916 19.5 10.351 19.5 12.066C19.5 13.96 17.988 15.5 16.13 15.5ZM13 7.5C11.442 7.5 10.103 8.69 9.885 10.269C9.851 10.516 9.639 10.7 9.39 10.7C8.329 10.7 7.5 11.553 7.5 12.599C7.5 13.647 8.329 14.499 9.348 14.499H16.131C17.438 14.499 18.501 13.407 18.501 12.065C18.501 10.777 17.523 9.712 16.275 9.641C16.089 9.63 15.925 9.518 15.848 9.35C15.334 8.227 14.217 7.5 13 7.5Z" stroke="#FD7E50"/>
  <path d="M13.7341 21.4733L14.8533 20.3542C15.0483 20.1592 15.0483 19.8422 14.8533 19.6472C14.6583 19.4522 14.3413 19.4522 14.1463 19.6472L12.1463 21.6472C11.9513 21.8422 11.9513 22.1592 12.1463 22.3542L14.1463 24.3542C14.2443 24.4512 14.3723 24.5002 14.5003 24.5002C14.6283 24.5002 14.7563 24.4512 14.8533 24.3532C15.0483 24.1582 15.0483 23.8412 14.8533 23.6462L13.6859 22.4789C19.4327 22.1235 24 17.3347 24 11.5C24 11.224 23.776 11 23.5 11C23.224 11 23 11.224 23 11.5C23 16.7671 18.9067 21.0962 13.7341 21.4733Z" stroke="#FD7E50"/>
  <path d="M9.5 21.8898C9.445 21.8898 9.389 21.8808 9.334 21.8618C4.948 20.3238 2 16.1598 2 11.4998C2 9.48168 2.54543 7.53709 3.58221 5.83884L1.62899 6.36213C1.36199 6.42913 1.08799 6.27513 1.01699 6.00813C0.945987 5.74113 1.10399 5.46813 1.37099 5.39613L4.26899 4.62013C4.53499 4.55313 4.80999 4.70713 4.88099 4.97313L5.65699 7.87012C5.72899 8.13812 5.56999 8.41112 5.30399 8.48312C5.25999 8.49412 5.21699 8.50012 5.17399 8.50012C4.95299 8.50012 4.75099 8.35312 4.69099 8.13012L4.28491 6.61438C3.44226 8.09509 3 9.76755 3 11.4998C3 15.7358 5.679 19.5208 9.666 20.9178C9.926 21.0088 10.063 21.2938 9.972 21.5548C9.9 21.7608 9.707 21.8898 9.5 21.8898Z" stroke="#FD7E50"/>
</svg>
