<svg width="25" height="24" viewBox="0 0 25 24" fill="none" xmlns="http://www.w3.org/2000/svg">
<path d="M21.7404 2.75948C21.5047 2.52391 21.2105 2.35539 20.888 2.27124C20.5656 2.18709 20.2265 2.19036 19.9057 2.2807L2.4373 7.20745C2.06991 7.31107 1.74289 7.52437 1.49997 7.81882C1.25704 8.11328 1.10978 8.47486 1.07786 8.85526C1.04594 9.23565 1.13088 9.61672 1.32134 9.94754C1.5118 10.2784 1.79869 10.5432 2.14368 10.7066L10.0487 14.451L13.7931 22.356C13.943 22.6774 14.1817 22.9491 14.481 23.1392C14.7804 23.3293 15.1279 23.4297 15.4824 23.4286C15.5361 23.4286 15.5901 23.4264 15.6444 23.4218C16.0255 23.392 16.3881 23.2455 16.683 23.0023C16.9778 22.7591 17.1906 22.4309 17.2923 22.0624L22.2191 4.59417C22.3094 4.27338 22.3127 3.93432 22.2285 3.61186C22.1444 3.28939 21.9759 2.99516 21.7403 2.75939L21.7404 2.75948ZM15.3984 20.4889L12.2496 13.8414L15.9317 10.1593C16.1417 9.94808 16.2594 9.66223 16.259 9.36439C16.2586 9.06656 16.1401 8.78104 15.9295 8.57044C15.7189 8.35984 15.4333 8.24135 15.1355 8.24096C14.8377 8.24056 14.5518 8.35829 14.3406 8.56833L10.6585 12.2504L4.01099 9.10148L19.872 4.62792L15.3984 20.4889Z" fill="white"/>
</svg>
