<svg width="50" height="25" viewBox="0 0 50 25" fill="none" xmlns="http://www.w3.org/2000/svg">
<g opacity="0.2">
<path d="M42.8391 17.8391C44.7803 18.3592 47.0576 17.5328 47.9062 15.3824L45.0406 14.6146C44.6869 15.2876 44.0963 15.5504 43.4955 15.3894C42.9408 15.2408 42.5946 14.7765 42.7433 14.2219C43.1705 12.6273 48.0813 14.6367 49.072 10.9391C49.6665 8.7206 48.1381 7.12214 46.012 6.55246C43.909 5.98896 41.6379 6.79227 40.8 8.9951L43.6656 9.76293C44.0779 9.05604 44.7485 8.8642 45.3494 9.0252C45.9734 9.19239 46.3134 9.6798 46.1647 10.2344C45.7065 11.9446 40.7958 9.93519 39.836 13.5172C39.2477 15.7126 40.8748 17.3127 42.8391 17.8391ZM39.8721 20.6851C39.5563 21.8637 40.1636 23.0172 41.3654 23.3392C42.5439 23.655 43.6467 22.9597 43.9625 21.7811C44.2721 20.6256 43.6709 19.449 42.4923 19.1332C41.2906 18.8112 40.1817 19.5296 39.8721 20.6851Z" fill="#0F1322"/>
<path d="M24.993 12.6505C27.0027 12.6505 28.9885 11.2628 29.2517 8.96604L26.285 8.96604C26.1175 9.70771 25.6151 10.1144 24.993 10.1144C24.4188 10.1144 23.9642 9.75556 23.9642 9.18136C23.9642 7.53054 29.2277 8.20044 29.2277 4.37244C29.2277 2.07565 27.3377 0.927246 25.1366 0.927246C22.9594 0.927246 20.9736 2.29097 20.7344 4.63562H23.7011C23.9164 3.84609 24.5145 3.48722 25.1366 3.48722C25.7825 3.48722 26.2371 3.87002 26.2371 4.44422C26.2371 6.21466 20.9736 5.54477 20.9736 9.25314C20.9736 11.526 22.9594 12.6505 24.993 12.6505ZM22.8637 16.1675C22.8637 17.3876 23.7489 18.3446 24.993 18.3446C26.2132 18.3446 27.0984 17.3876 27.0984 16.1675C27.0984 14.9712 26.2132 13.9903 24.993 13.9903C23.7489 13.9903 22.8637 14.9712 22.8637 16.1675Z" fill="#0F1322"/>
<path d="M7.14773 18.0306C9.08895 17.5105 10.6479 15.6562 10.3077 13.3695L7.44205 14.1374C7.47224 14.8971 7.09221 15.42 6.49135 15.581C5.93672 15.7296 5.40475 15.5006 5.25614 14.946C4.82887 13.3514 10.0864 12.6362 9.09564 8.93864C8.50119 6.72011 6.37829 6.10002 4.25219 6.66971C2.14921 7.2332 0.584055 9.06442 0.959797 11.3911L3.82541 10.6233C3.82905 9.8049 4.31391 9.30345 4.91476 9.14245C5.53873 8.97526 6.07689 9.22737 6.2255 9.782C6.68373 11.4921 1.4262 12.2073 2.386 15.7894C2.97426 17.9848 5.1834 18.557 7.14773 18.0306ZM6.00122 21.9789C6.31703 23.1575 7.41978 23.8528 8.62148 23.5308C9.80008 23.215 10.4075 22.0615 10.0916 20.8829C9.78204 19.7274 8.67309 19.009 7.4945 19.3248C6.29279 19.6468 5.69161 20.8234 6.00122 21.9789Z" fill="#0F1322"/>
</g>
</svg>
