<svg width="24" height="24" viewBox="0 0 24 24" fill="none" xmlns="http://www.w3.org/2000/svg">
<path d="M6 12C6 12.2652 6.10536 12.5195 6.29289 12.7071C6.48043 12.8946 6.73478 13 7 13H18.585L17.293 14.293C17.1208 14.4652 17.0174 14.6943 17.0021 14.9373C16.9868 15.1803 17.0607 15.4206 17.21 15.613L17.293 15.707C17.4652 15.8791 17.6943 15.9826 17.9373 15.9979C18.1803 16.0131 18.4206 15.9392 18.613 15.79L18.707 15.707L21.707 12.707C21.8792 12.5348 21.9826 12.3057 21.9979 12.0626C22.0132 11.8196 21.9393 11.5794 21.79 11.387L21.707 11.293L18.707 8.29297C18.527 8.11362 18.2856 8.00949 18.0316 8.00174C17.7777 7.99399 17.5303 8.08318 17.3397 8.25122C17.1492 8.41925 17.0297 8.65352 17.0056 8.90644C16.9815 9.15937 17.0546 9.41198 17.21 9.61297L17.293 9.70697L18.585 11H7C6.73478 11 6.48043 11.1053 6.29289 11.2929C6.10536 11.4804 6 11.7348 6 12ZM2 12C1.99925 13.1493 2.39445 14.2637 3.11908 15.1558C3.84372 16.0478 4.85355 16.663 5.9786 16.8978C7.10365 17.1326 8.27524 16.9726 9.29617 16.4448C10.3171 15.917 11.125 15.0536 11.584 14H9.872C9.44621 14.6115 8.83638 15.0711 8.13127 15.312C7.42615 15.5529 6.66256 15.5625 5.95162 15.3394C5.24069 15.1162 4.61952 14.672 4.17852 14.0714C3.73752 13.4708 3.49972 12.7451 3.49972 12C3.49972 11.2548 3.73752 10.5292 4.17852 9.92854C4.61952 9.32792 5.24069 8.88372 5.95162 8.66058C6.66256 8.43745 7.42615 8.44703 8.13127 8.68793C8.83638 8.92883 9.44621 9.38848 9.872 9.99997H11.584C11.1243 8.94729 10.3162 8.08496 9.2955 7.55793C8.27484 7.0309 7.10386 6.8713 5.97939 7.10595C4.85492 7.34061 3.84551 7.95522 3.12082 8.84647C2.39613 9.73772 2.00035 10.8513 2 12Z" fill="#FD7E50"/>
</svg>
