<svg width="24" height="24" viewBox="0 0 24 24" fill="none" xmlns="http://www.w3.org/2000/svg">
<path d="M15.5391 10.5H18C18.4062 10.5 18.7578 10.6445 19.0547 10.9336C19.3516 11.2227 19.5 11.5742 19.5 11.9883C19.5 12.4023 19.3516 12.7578 19.0547 13.0547C18.7578 13.3516 18.4062 13.5 18 13.5H12C11.5781 13.5 11.2227 13.3516 10.9336 13.0547C10.6445 12.7578 10.5 12.4062 10.5 12V6C10.5 5.57812 10.6445 5.22266 10.9336 4.93359C11.2227 4.64453 11.5742 4.5 11.9883 4.5C12.4023 4.5 12.7578 4.64453 13.0547 4.93359C13.3516 5.22266 13.5 5.57812 13.5 6V8.46094L21.5391 0.421875C21.8203 0.140625 22.1602 0 22.5586 0C22.957 0 23.2969 0.140625 23.5781 0.421875C23.8594 0.703125 24 1.04297 24 1.44141C24 1.83984 23.8594 2.17969 23.5781 2.46094L15.5391 10.5ZM12 3C10.375 3 8.87109 3.40234 7.48828 4.20703C6.10547 5.01172 5.01172 6.10547 4.20703 7.48828C3.40234 8.87109 3 10.375 3 12C3 13.625 3.40234 15.1289 4.20703 16.5117C5.01172 17.8945 6.10547 18.9883 7.48828 19.793C8.87109 20.5977 10.375 21 12 21C13.625 21 15.1289 20.5977 16.5117 19.793C17.8945 18.9883 18.9883 17.8945 19.793 16.5117C20.5977 15.1289 21 13.625 21 12C21 11.5781 21.1445 11.2227 21.4336 10.9336C21.7227 10.6445 22.0781 10.5 22.5 10.5C22.9219 10.5 23.2773 10.6445 23.5664 10.9336C23.8555 11.2227 24 11.5781 24 12C24 13.625 23.6836 15.1797 23.0508 16.6641C22.418 18.1484 21.5664 19.4258 20.4961 20.4961C19.4258 21.5664 18.1484 22.418 16.6641 23.0508C15.1797 23.6836 13.625 24 12 24C10.375 24 8.82031 23.6836 7.33594 23.0508C5.85156 22.418 4.57422 21.5664 3.50391 20.4961C2.43359 19.4258 1.58203 18.1484 0.949219 16.6641C0.316406 15.1797 0 13.625 0 12C0 10.375 0.316406 8.82031 0.949219 7.33594C1.58203 5.85156 2.43359 4.57422 3.50391 3.50391C4.57422 2.43359 5.85156 1.58203 7.33594 0.949219C8.82031 0.316406 10.375 0 12 0C12.4062 0 12.7578 0.144531 13.0547 0.433594C13.3516 0.722656 13.5 1.07422 13.5 1.48828C13.5 1.90234 13.3516 2.25781 13.0547 2.55469C12.7578 2.85156 12.4062 3 12 3Z" fill="#FD7E50"/>
</svg>
